<svg width="196" height="45" viewBox="0 0 196 45" fill="none" xmlns="http://www.w3.org/2000/svg">
<g id="bootstrap" opacity="0.6">
<path id="Bootstrap" d="M72.992 31V14.2H81.2C83.312 14.2 84.896 14.6 85.952 15.4C87.024 16.2 87.56 17.256 87.56 18.568C87.56 19.448 87.344 20.216 86.912 20.872C86.48 21.512 85.888 22.008 85.136 22.36C84.384 22.712 83.52 22.888 82.544 22.888L83 21.904C84.056 21.904 84.992 22.08 85.808 22.432C86.624 22.768 87.256 23.272 87.704 23.944C88.168 24.616 88.4 25.44 88.4 26.416C88.4 27.856 87.832 28.984 86.696 29.8C85.56 30.6 83.888 31 81.68 31H72.992ZM76.856 28.072H81.392C82.4 28.072 83.16 27.912 83.672 27.592C84.2 27.256 84.464 26.728 84.464 26.008C84.464 25.304 84.2 24.784 83.672 24.448C83.16 24.096 82.4 23.92 81.392 23.92H76.568V21.088H80.72C81.664 21.088 82.384 20.928 82.88 20.608C83.392 20.272 83.648 19.768 83.648 19.096C83.648 18.44 83.392 17.952 82.88 17.632C82.384 17.296 81.664 17.128 80.72 17.128H76.856V28.072ZM97.2236 31.192C95.8476 31.192 94.6236 30.904 93.5516 30.328C92.4956 29.752 91.6556 28.968 91.0316 27.976C90.4236 26.968 90.1196 25.824 90.1196 24.544C90.1196 23.248 90.4236 22.104 91.0316 21.112C91.6556 20.104 92.4956 19.32 93.5516 18.76C94.6236 18.184 95.8476 17.896 97.2236 17.896C98.5836 17.896 99.7996 18.184 100.872 18.76C101.944 19.32 102.784 20.096 103.392 21.088C104 22.08 104.304 23.232 104.304 24.544C104.304 25.824 104 26.968 103.392 27.976C102.784 28.968 101.944 29.752 100.872 30.328C99.7996 30.904 98.5836 31.192 97.2236 31.192ZM97.2236 28.12C97.8476 28.12 98.4076 27.976 98.9036 27.688C99.3996 27.4 99.7916 26.992 100.08 26.464C100.368 25.92 100.512 25.28 100.512 24.544C100.512 23.792 100.368 23.152 100.08 22.624C99.7916 22.096 99.3996 21.688 98.9036 21.4C98.4076 21.112 97.8476 20.968 97.2236 20.968C96.5996 20.968 96.0396 21.112 95.5436 21.4C95.0476 21.688 94.6476 22.096 94.3436 22.624C94.0556 23.152 93.9116 23.792 93.9116 24.544C93.9116 25.28 94.0556 25.92 94.3436 26.464C94.6476 26.992 95.0476 27.4 95.5436 27.688C96.0396 27.976 96.5996 28.12 97.2236 28.12ZM112.95 31.192C111.574 31.192 110.35 30.904 109.278 30.328C108.222 29.752 107.382 28.968 106.758 27.976C106.15 26.968 105.846 25.824 105.846 24.544C105.846 23.248 106.15 22.104 106.758 21.112C107.382 20.104 108.222 19.32 109.278 18.76C110.35 18.184 111.574 17.896 112.95 17.896C114.31 17.896 115.526 18.184 116.598 18.76C117.67 19.32 118.51 20.096 119.118 21.088C119.726 22.08 120.03 23.232 120.03 24.544C120.03 25.824 119.726 26.968 119.118 27.976C118.51 28.968 117.67 29.752 116.598 30.328C115.526 30.904 114.31 31.192 112.95 31.192ZM112.95 28.12C113.574 28.12 114.134 27.976 114.63 27.688C115.126 27.4 115.518 26.992 115.806 26.464C116.094 25.92 116.238 25.28 116.238 24.544C116.238 23.792 116.094 23.152 115.806 22.624C115.518 22.096 115.126 21.688 114.63 21.4C114.134 21.112 113.574 20.968 112.95 20.968C112.326 20.968 111.766 21.112 111.27 21.4C110.774 21.688 110.374 22.096 110.07 22.624C109.782 23.152 109.638 23.792 109.638 24.544C109.638 25.28 109.782 25.92 110.07 26.464C110.374 26.992 110.774 27.4 111.27 27.688C111.766 27.976 112.326 28.12 112.95 28.12ZM127.813 31.192C126.293 31.192 125.109 30.808 124.261 30.04C123.413 29.256 122.989 28.096 122.989 26.56V15.232H126.733V26.512C126.733 27.056 126.877 27.48 127.165 27.784C127.453 28.072 127.845 28.216 128.341 28.216C128.933 28.216 129.437 28.056 129.853 27.736L130.861 30.376C130.477 30.648 130.013 30.856 129.469 31C128.941 31.128 128.389 31.192 127.813 31.192ZM120.997 21.256V18.376H129.949V21.256H120.997ZM137.306 31.192C136.202 31.192 135.138 31.064 134.114 30.808C133.106 30.536 132.306 30.2 131.714 29.8L132.962 27.112C133.554 27.48 134.25 27.784 135.05 28.024C135.866 28.248 136.666 28.36 137.45 28.36C138.314 28.36 138.922 28.256 139.274 28.048C139.642 27.84 139.826 27.552 139.826 27.184C139.826 26.88 139.682 26.656 139.394 26.512C139.122 26.352 138.754 26.232 138.29 26.152C137.826 26.072 137.314 25.992 136.754 25.912C136.21 25.832 135.658 25.728 135.098 25.6C134.538 25.456 134.026 25.248 133.562 24.976C133.098 24.704 132.722 24.336 132.434 23.872C132.162 23.408 132.026 22.808 132.026 22.072C132.026 21.256 132.258 20.536 132.722 19.912C133.202 19.288 133.89 18.8 134.786 18.448C135.682 18.08 136.754 17.896 138.002 17.896C138.882 17.896 139.778 17.992 140.69 18.184C141.602 18.376 142.362 18.656 142.97 19.024L141.722 21.688C141.098 21.32 140.466 21.072 139.826 20.944C139.202 20.8 138.594 20.728 138.002 20.728C137.17 20.728 136.562 20.84 136.178 21.064C135.794 21.288 135.602 21.576 135.602 21.928C135.602 22.248 135.738 22.488 136.01 22.648C136.298 22.808 136.674 22.936 137.138 23.032C137.602 23.128 138.106 23.216 138.65 23.296C139.21 23.36 139.77 23.464 140.33 23.608C140.89 23.752 141.394 23.96 141.842 24.232C142.306 24.488 142.682 24.848 142.97 25.312C143.258 25.76 143.402 26.352 143.402 27.088C143.402 27.888 143.162 28.6 142.682 29.224C142.202 29.832 141.506 30.312 140.594 30.664C139.698 31.016 138.602 31.192 137.306 31.192ZM150.992 31.192C149.472 31.192 148.288 30.808 147.44 30.04C146.592 29.256 146.168 28.096 146.168 26.56V15.232H149.912V26.512C149.912 27.056 150.056 27.48 150.344 27.784C150.632 28.072 151.024 28.216 151.52 28.216C152.112 28.216 152.616 28.056 153.032 27.736L154.04 30.376C153.656 30.648 153.192 30.856 152.648 31C152.12 31.128 151.568 31.192 150.992 31.192ZM144.176 21.256V18.376H153.128V21.256H144.176ZM156.142 31V18.088H159.718V21.736L159.214 20.68C159.598 19.768 160.214 19.08 161.062 18.616C161.91 18.136 162.942 17.896 164.158 17.896V21.352C163.998 21.336 163.854 21.328 163.726 21.328C163.598 21.312 163.462 21.304 163.318 21.304C162.294 21.304 161.462 21.6 160.822 22.192C160.198 22.768 159.886 23.672 159.886 24.904V31H156.142ZM173.461 31V28.48L173.221 27.928V23.416C173.221 22.616 172.973 21.992 172.477 21.544C171.997 21.096 171.253 20.872 170.245 20.872C169.557 20.872 168.877 20.984 168.205 21.208C167.549 21.416 166.989 21.704 166.525 22.072L165.181 19.456C165.885 18.96 166.733 18.576 167.725 18.304C168.717 18.032 169.725 17.896 170.749 17.896C172.717 17.896 174.245 18.36 175.333 19.288C176.421 20.216 176.965 21.664 176.965 23.632V31H173.461ZM169.525 31.192C168.517 31.192 167.653 31.024 166.933 30.688C166.213 30.336 165.661 29.864 165.277 29.272C164.893 28.68 164.701 28.016 164.701 27.28C164.701 26.512 164.885 25.84 165.253 25.264C165.637 24.688 166.237 24.24 167.053 23.92C167.869 23.584 168.933 23.416 170.245 23.416H173.677V25.6H170.653C169.773 25.6 169.165 25.744 168.829 26.032C168.509 26.32 168.349 26.68 168.349 27.112C168.349 27.592 168.533 27.976 168.901 28.264C169.285 28.536 169.805 28.672 170.461 28.672C171.085 28.672 171.645 28.528 172.141 28.24C172.637 27.936 172.997 27.496 173.221 26.92L173.797 28.648C173.525 29.48 173.029 30.112 172.309 30.544C171.589 30.976 170.661 31.192 169.525 31.192ZM187.985 31.192C186.897 31.192 185.945 30.952 185.129 30.472C184.313 29.992 183.673 29.264 183.209 28.288C182.761 27.296 182.537 26.048 182.537 24.544C182.537 23.024 182.753 21.776 183.185 20.8C183.617 19.824 184.241 19.096 185.057 18.616C185.873 18.136 186.849 17.896 187.985 17.896C189.201 17.896 190.289 18.176 191.249 18.736C192.225 19.28 192.993 20.048 193.553 21.04C194.129 22.032 194.417 23.2 194.417 24.544C194.417 25.904 194.129 27.08 193.553 28.072C192.993 29.064 192.225 29.832 191.249 30.376C190.289 30.92 189.201 31.192 187.985 31.192ZM180.353 35.656V18.088H183.929V20.728L183.857 24.568L184.097 28.384V35.656H180.353ZM187.337 28.12C187.961 28.12 188.513 27.976 188.993 27.688C189.489 27.4 189.881 26.992 190.169 26.464C190.473 25.92 190.625 25.28 190.625 24.544C190.625 23.792 190.473 23.152 190.169 22.624C189.881 22.096 189.489 21.688 188.993 21.4C188.513 21.112 187.961 20.968 187.337 20.968C186.713 20.968 186.153 21.112 185.657 21.4C185.161 21.688 184.769 22.096 184.481 22.624C184.193 23.152 184.049 23.792 184.049 24.544C184.049 25.28 184.193 25.92 184.481 26.464C184.769 26.992 185.161 27.4 185.657 27.688C186.153 27.976 186.713 28.12 187.337 28.12Z" fill="#E3E3E3"/>
<path id="Vector" fill-rule="evenodd" clip-rule="evenodd" d="M11.4237 0C8.28545 0 5.96331 2.82116 6.06729 5.88064C6.16709 8.81996 6.03743 12.6268 5.10437 15.7313C4.16797 18.8445 2.58543 20.8173 0 21.0706V23.9294C2.58543 24.1832 4.16797 26.155 5.10426 29.2687C6.03743 32.3732 6.16698 36.18 6.06719 39.1194C5.9632 42.1784 8.28534 45 11.4241 45H43.5805C46.7187 45 49.0404 42.1788 48.9365 39.1194C48.8367 36.18 48.9663 32.3732 49.8994 29.2687C50.8358 26.155 52.4145 24.1824 55 23.9294V21.0706C52.4146 20.8168 50.8359 18.845 49.8994 15.7313C48.9662 12.6273 48.8367 8.81996 48.9365 5.88064C49.0404 2.8216 46.7187 0 43.5805 0H11.4232H11.4237ZM37.2882 27.7004C37.2882 31.9132 34.2287 34.4681 29.1514 34.4681H20.5084C20.2612 34.4681 20.0241 34.3673 19.8493 34.1877C19.6745 34.0082 19.5762 33.7646 19.5762 33.5107V11.4894C19.5762 11.2355 19.6745 10.992 19.8493 10.8124C20.0241 10.6328 20.2612 10.532 20.5084 10.532H29.1022C33.3358 10.532 36.1143 12.8873 36.1143 16.5035C36.1143 19.0417 34.2451 21.3139 31.8639 21.712V21.8444C35.1055 22.2096 37.2882 24.5155 37.2882 27.7004V27.7004ZM28.209 13.5671H23.2809V20.7165H27.4316C30.6403 20.7165 32.4095 19.3894 32.4095 17.0174C32.4092 14.7945 30.8881 13.5671 28.209 13.5671ZM23.2809 23.5532V31.4321H28.3903C31.7311 31.4321 33.5007 30.0552 33.5007 27.4678C33.5007 24.8803 31.6815 23.5528 28.1755 23.5528H23.2809V23.5532Z" fill="#443F3C"/>
</g>
</svg>
