<svg width="83" height="75" viewBox="0 0 83 75" fill="none" xmlns="http://www.w3.org/2000/svg">
<path d="M36.69 50.4333L28.18 42L36.69 33.5667L34.1 31L23 42L34.1 53L36.69 50.4333ZM46.31 50.4333L54.82 42L46.31 33.5667L48.9 31L60 42L48.9 53L46.31 50.4333V50.4333Z" fill="#E3E3E3"/>
<path d="M73.7778 0H9.22222C4.10389 0 0 4.21875 0 9.375V65.625C0 70.7813 4.10389 75 9.22222 75H73.7778C78.85 75 83 70.7813 83 65.625V9.375C83 4.21875 78.8961 0 73.7778 0ZM73.7778 65.625H9.22222V18.75H73.7778V65.625Z" fill="#E3E3E3"/>
</svg>
