<svg width="106" height="46" viewBox="0 0 106 46" fill="none" xmlns="http://www.w3.org/2000/svg">
<g id="css" opacity="0.6">
<path id="CSS" d="M66.1179 32.288C64.8219 32.288 63.6139 32.08 62.4939 31.664C61.3899 31.232 60.4299 30.624 59.6139 29.84C58.7979 29.056 58.1579 28.136 57.6939 27.08C57.2459 26.024 57.0219 24.864 57.0219 23.6C57.0219 22.336 57.2459 21.176 57.6939 20.12C58.1579 19.064 58.7979 18.144 59.6139 17.36C60.4459 16.576 61.4139 15.976 62.5179 15.56C63.6219 15.128 64.8299 14.912 66.1419 14.912C67.5979 14.912 68.9099 15.168 70.0779 15.68C71.2619 16.176 72.2539 16.912 73.0539 17.888L70.5579 20.192C69.9819 19.536 69.3419 19.048 68.6379 18.728C67.9339 18.392 67.1659 18.224 66.3339 18.224C65.5499 18.224 64.8299 18.352 64.1739 18.608C63.5179 18.864 62.9499 19.232 62.4699 19.712C61.9899 20.192 61.6139 20.76 61.3419 21.416C61.0859 22.072 60.9579 22.8 60.9579 23.6C60.9579 24.4 61.0859 25.128 61.3419 25.784C61.6139 26.44 61.9899 27.008 62.4699 27.488C62.9499 27.968 63.5179 28.336 64.1739 28.592C64.8299 28.848 65.5499 28.976 66.3339 28.976C67.1659 28.976 67.9339 28.816 68.6379 28.496C69.3419 28.16 69.9819 27.656 70.5579 26.984L73.0539 29.288C72.2539 30.264 71.2619 31.008 70.0779 31.52C68.9099 32.032 67.5899 32.288 66.1179 32.288ZM81.1058 32.288C79.7618 32.288 78.4738 32.112 77.2418 31.76C76.0098 31.392 75.0178 30.92 74.2658 30.344L75.5858 27.416C76.3058 27.928 77.1538 28.352 78.1298 28.688C79.1218 29.008 80.1218 29.168 81.1298 29.168C81.8978 29.168 82.5138 29.096 82.9778 28.952C83.4578 28.792 83.8098 28.576 84.0338 28.304C84.2578 28.032 84.3698 27.72 84.3698 27.368C84.3698 26.92 84.1938 26.568 83.8418 26.312C83.4898 26.04 83.0258 25.824 82.4498 25.664C81.8738 25.488 81.2338 25.328 80.5298 25.184C79.8418 25.024 79.1458 24.832 78.4418 24.608C77.7538 24.384 77.1218 24.096 76.5458 23.744C75.9698 23.392 75.4978 22.928 75.1298 22.352C74.7778 21.776 74.6018 21.04 74.6018 20.144C74.6018 19.184 74.8578 18.312 75.3698 17.528C75.8978 16.728 76.6818 16.096 77.7218 15.632C78.7778 15.152 80.0978 14.912 81.6818 14.912C82.7378 14.912 83.7778 15.04 84.8018 15.296C85.8258 15.536 86.7298 15.904 87.5138 16.4L86.3138 19.352C85.5298 18.904 84.7458 18.576 83.9618 18.368C83.1778 18.144 82.4098 18.032 81.6578 18.032C80.9058 18.032 80.2898 18.12 79.8098 18.296C79.3298 18.472 78.9858 18.704 78.7778 18.992C78.5698 19.264 78.4658 19.584 78.4658 19.952C78.4658 20.384 78.6418 20.736 78.9938 21.008C79.3458 21.264 79.8098 21.472 80.3858 21.632C80.9618 21.792 81.5938 21.952 82.2818 22.112C82.9858 22.272 83.6818 22.456 84.3698 22.664C85.0738 22.872 85.7138 23.152 86.2898 23.504C86.8658 23.856 87.3298 24.32 87.6818 24.896C88.0498 25.472 88.2338 26.2 88.2338 27.08C88.2338 28.024 87.9698 28.888 87.4418 29.672C86.9138 30.456 86.1218 31.088 85.0658 31.568C84.0258 32.048 82.7058 32.288 81.1058 32.288ZM96.4104 32.288C95.0664 32.288 93.7784 32.112 92.5464 31.76C91.3144 31.392 90.3224 30.92 89.5704 30.344L90.8904 27.416C91.6104 27.928 92.4584 28.352 93.4344 28.688C94.4264 29.008 95.4264 29.168 96.4344 29.168C97.2024 29.168 97.8184 29.096 98.2824 28.952C98.7624 28.792 99.1144 28.576 99.3384 28.304C99.5624 28.032 99.6744 27.72 99.6744 27.368C99.6744 26.92 99.4984 26.568 99.1464 26.312C98.7944 26.04 98.3304 25.824 97.7544 25.664C97.1784 25.488 96.5384 25.328 95.8344 25.184C95.1464 25.024 94.4504 24.832 93.7464 24.608C93.0584 24.384 92.4264 24.096 91.8504 23.744C91.2744 23.392 90.8024 22.928 90.4344 22.352C90.0824 21.776 89.9064 21.04 89.9064 20.144C89.9064 19.184 90.1624 18.312 90.6744 17.528C91.2024 16.728 91.9864 16.096 93.0264 15.632C94.0824 15.152 95.4024 14.912 96.9864 14.912C98.0424 14.912 99.0824 15.04 100.106 15.296C101.13 15.536 102.034 15.904 102.818 16.4L101.618 19.352C100.834 18.904 100.05 18.576 99.2664 18.368C98.4824 18.144 97.7144 18.032 96.9624 18.032C96.2104 18.032 95.5944 18.12 95.1144 18.296C94.6344 18.472 94.2904 18.704 94.0824 18.992C93.8744 19.264 93.7704 19.584 93.7704 19.952C93.7704 20.384 93.9464 20.736 94.2984 21.008C94.6504 21.264 95.1144 21.472 95.6904 21.632C96.2664 21.792 96.8984 21.952 97.5864 22.112C98.2904 22.272 98.9864 22.456 99.6744 22.664C100.378 22.872 101.018 23.152 101.594 23.504C102.17 23.856 102.634 24.32 102.986 24.896C103.354 25.472 103.538 26.2 103.538 27.08C103.538 28.024 103.274 28.888 102.746 29.672C102.218 30.456 101.426 31.088 100.37 31.568C99.3304 32.048 98.0104 32.288 96.4104 32.288Z" fill="#E3E3E3"/>
<g id="CssSvg">
<path id="Vector" d="M3.35647 41.0178L0 0L40.085 0.0824287L36.5359 41.0178L20.1938 45.7495L3.35647 41.0178Z" fill="#4E4E4E"/>
<path id="Vector_2" d="M20.1934 41.7884V3.90674L36.7006 3.96169L33.757 37.8544L20.1934 41.7884Z" fill="#7F7F7F"/>
<path id="Vector_3" d="M32.6006 8.74805H7.20703L7.89494 13.6996H19.945L8.08761 18.7892L8.7752 23.5758H26.2455L25.6125 30.2606L19.6974 31.4163L14.3328 30.0408L13.92 26.2443H8.99534L9.65545 34.14L20.2201 37.0835L30.3448 33.8649L31.6379 18.4313H20.9352L32.6002 13.5897L32.6006 8.74805Z" fill="white"/>
</g>
</g>
</svg>
