<svg width="126" height="45" viewBox="0 0 126 45" fill="none" xmlns="http://www.w3.org/2000/svg">
<g id="FIGMA" opacity="0.6">
<path id="Figma" d="M51.3108 21.76H59.3748V24.88H51.3108V21.76ZM51.5988 31H47.7108V14.2H60.4068V17.32H51.5988V31ZM62.7749 31V18.088H66.5189V31H62.7749ZM64.6469 16.288C63.9589 16.288 63.3989 16.088 62.9669 15.688C62.5349 15.288 62.3189 14.792 62.3189 14.2C62.3189 13.608 62.5349 13.112 62.9669 12.712C63.3989 12.312 63.9589 12.112 64.6469 12.112C65.3349 12.112 65.8949 12.304 66.3269 12.688C66.7589 13.056 66.9749 13.536 66.9749 14.128C66.9749 14.752 66.7589 15.272 66.3269 15.688C65.9109 16.088 65.3509 16.288 64.6469 16.288ZM76.0656 35.848C74.8496 35.848 73.6736 35.696 72.5376 35.392C71.4176 35.104 70.4816 34.664 69.7296 34.072L71.2176 31.384C71.7616 31.832 72.4496 32.184 73.2816 32.44C74.1296 32.712 74.9616 32.848 75.7776 32.848C77.1056 32.848 78.0656 32.552 78.6576 31.96C79.2656 31.368 79.5696 30.488 79.5696 29.32V27.376L79.8096 24.136L79.7616 20.872V18.088H83.3136V28.84C83.3136 31.24 82.6896 33.008 81.4416 34.144C80.1936 35.28 78.4016 35.848 76.0656 35.848ZM75.4896 30.376C74.2896 30.376 73.2016 30.12 72.2256 29.608C71.2656 29.08 70.4896 28.352 69.8976 27.424C69.3216 26.48 69.0336 25.384 69.0336 24.136C69.0336 22.872 69.3216 21.776 69.8976 20.848C70.4896 19.904 71.2656 19.176 72.2256 18.664C73.2016 18.152 74.2896 17.896 75.4896 17.896C76.5776 17.896 77.5376 18.12 78.3696 18.568C79.2016 19 79.8496 19.68 80.3136 20.608C80.7776 21.52 81.0096 22.696 81.0096 24.136C81.0096 25.56 80.7776 26.736 80.3136 27.664C79.8496 28.576 79.2016 29.256 78.3696 29.704C77.5376 30.152 76.5776 30.376 75.4896 30.376ZM76.2336 27.304C76.8896 27.304 77.4736 27.176 77.9856 26.92C78.4976 26.648 78.8976 26.272 79.1856 25.792C79.4736 25.312 79.6176 24.76 79.6176 24.136C79.6176 23.496 79.4736 22.944 79.1856 22.48C78.8976 22 78.4976 21.632 77.9856 21.376C77.4736 21.104 76.8896 20.968 76.2336 20.968C75.5776 20.968 74.9936 21.104 74.4816 21.376C73.9696 21.632 73.5616 22 73.2576 22.48C72.9696 22.944 72.8256 23.496 72.8256 24.136C72.8256 24.76 72.9696 25.312 73.2576 25.792C73.5616 26.272 73.9696 26.648 74.4816 26.92C74.9936 27.176 75.5776 27.304 76.2336 27.304ZM103.334 17.896C104.358 17.896 105.262 18.104 106.046 18.52C106.846 18.92 107.47 19.544 107.918 20.392C108.382 21.224 108.614 22.296 108.614 23.608V31H104.87V24.184C104.87 23.144 104.654 22.376 104.222 21.88C103.79 21.384 103.182 21.136 102.398 21.136C101.854 21.136 101.366 21.264 100.934 21.52C100.502 21.76 100.166 22.128 99.9263 22.624C99.6863 23.12 99.5663 23.752 99.5663 24.52V31H95.8223V24.184C95.8223 23.144 95.6063 22.376 95.1743 21.88C94.7583 21.384 94.1583 21.136 93.3743 21.136C92.8303 21.136 92.3423 21.264 91.9103 21.52C91.4783 21.76 91.1423 22.128 90.9023 22.624C90.6623 23.12 90.5423 23.752 90.5423 24.52V31H86.7983V18.088H90.3743V21.616L89.7023 20.584C90.1503 19.704 90.7823 19.04 91.5983 18.592C92.4303 18.128 93.3743 17.896 94.4303 17.896C95.6143 17.896 96.6463 18.2 97.5263 18.808C98.4223 19.4 99.0143 20.312 99.3023 21.544L97.9823 21.184C98.4143 20.176 99.1023 19.376 100.046 18.784C101.006 18.192 102.102 17.896 103.334 17.896ZM119.89 31V28.48L119.65 27.928V23.416C119.65 22.616 119.402 21.992 118.906 21.544C118.426 21.096 117.682 20.872 116.674 20.872C115.986 20.872 115.306 20.984 114.634 21.208C113.978 21.416 113.418 21.704 112.954 22.072L111.61 19.456C112.314 18.96 113.162 18.576 114.154 18.304C115.146 18.032 116.154 17.896 117.178 17.896C119.146 17.896 120.674 18.36 121.762 19.288C122.85 20.216 123.394 21.664 123.394 23.632V31H119.89ZM115.954 31.192C114.946 31.192 114.082 31.024 113.362 30.688C112.642 30.336 112.09 29.864 111.706 29.272C111.322 28.68 111.13 28.016 111.13 27.28C111.13 26.512 111.314 25.84 111.682 25.264C112.066 24.688 112.666 24.24 113.482 23.92C114.298 23.584 115.362 23.416 116.674 23.416H120.106V25.6H117.082C116.202 25.6 115.594 25.744 115.258 26.032C114.938 26.32 114.778 26.68 114.778 27.112C114.778 27.592 114.962 27.976 115.33 28.264C115.714 28.536 116.234 28.672 116.89 28.672C117.514 28.672 118.074 28.528 118.57 28.24C119.066 27.936 119.426 27.496 119.65 26.92L120.226 28.648C119.954 29.48 119.458 30.112 118.738 30.544C118.018 30.976 117.09 31.192 115.954 31.192Z" fill="#E3E3E3"/>
<g id="Group 36">
<path id="Vector" d="M7.42925 44.6747C11.5302 44.6747 14.8585 41.339 14.8585 37.229V29.7832H7.42925C3.3283 29.7832 0 33.1189 0 37.229C0 41.339 3.3283 44.6747 7.42925 44.6747Z" fill="#443F3C"/>
<path id="Vector_2" d="M0 22.3373C0 18.2273 3.3283 14.8916 7.42925 14.8916H14.8585V29.7831H7.42925C3.3283 29.7831 0 26.4474 0 22.3373Z" fill="#443F3C"/>
<path id="Vector_3" d="M0 7.44575C0 3.33569 3.3283 0 7.42925 0H14.8585V14.8915H7.42925C3.3283 14.8915 0 11.5558 0 7.44575Z" fill="#443F3C"/>
<path id="Vector_4" d="M14.8594 0H22.2886C26.3896 0 29.7179 3.33569 29.7179 7.44575C29.7179 11.5558 26.3896 14.8915 22.2886 14.8915H14.8594V0Z" fill="#615D59"/>
<path id="Vector_5" d="M29.7179 22.3373C29.7179 26.4474 26.3896 29.7831 22.2886 29.7831C18.1877 29.7831 14.8594 26.4474 14.8594 22.3373C14.8594 18.2273 18.1877 14.8916 22.2886 14.8916C26.3896 14.8916 29.7179 18.2273 29.7179 22.3373Z" fill="#443F3C"/>
</g>
</g>
</svg>
