<svg width="23" height="22" viewBox="0 0 23 22" fill="none" xmlns="http://www.w3.org/2000/svg">
<mask id="path-1-inside-1_807_17" fill="white">
<path d="M11.2785 0C5.05034 0 0 5.04945 0 11.2785C0 16.2617 3.23162 20.4893 7.71292 21.9806C8.27656 22.085 8.48354 21.736 8.48354 21.438C8.48354 21.1691 8.47302 20.2806 8.46824 19.3382C5.33048 20.0205 4.66839 18.0075 4.66839 18.0075C4.15535 16.7038 3.41613 16.3573 3.41613 16.3573C2.39288 15.6572 3.49327 15.6716 3.49327 15.6716C4.62584 15.7512 5.22221 16.8339 5.22221 16.8339C6.22812 18.5581 7.86064 18.0596 8.50424 17.7715C8.60543 17.0425 8.89778 16.545 9.22028 16.2633C6.71524 15.9781 4.08176 15.011 4.08176 10.6894C4.08176 9.45814 4.52235 8.45197 5.24388 7.66215C5.12676 7.37803 4.74075 6.23095 5.35312 4.67741C5.35312 4.67741 6.30021 4.37428 8.4555 5.83352C9.35509 5.58355 10.32 5.45829 11.2785 5.45405C12.237 5.45829 13.2025 5.58355 14.1039 5.83352C16.2566 4.37428 17.2024 4.67741 17.2024 4.67741C17.8163 6.23095 17.4301 7.37803 17.3129 7.66215C18.0361 8.45197 18.4737 9.45805 18.4737 10.6894C18.4737 15.0213 15.8352 15.9752 13.3238 16.2543C13.7283 16.6043 14.0888 17.2907 14.0888 18.3429C14.0888 19.852 14.0757 21.0665 14.0757 21.438C14.0757 21.7382 14.2787 22.0899 14.8504 21.9791C19.3293 20.4861 22.5568 16.26 22.5568 11.2785C22.5568 5.04945 17.5072 0 11.2785 0Z"/>
</mask>
<path d="M7.71292 21.9806L3.92372 33.3667L4.71149 33.6288L5.52785 33.78L7.71292 21.9806ZM8.46824 19.3382L20.4681 19.2774L20.393 4.46499L5.91862 7.6122L8.46824 19.3382ZM4.66839 18.0075L16.0676 14.2582L15.9604 13.9323L15.8348 13.6131L4.66839 18.0075ZM3.41613 16.3573L-3.35952 26.2613L-2.55756 26.81L-1.67778 27.2225L3.41613 16.3573ZM3.49327 15.6716L4.33468 3.70111L3.99251 3.67706L3.64952 3.67259L3.49327 15.6716ZM5.22221 16.8339L-5.28876 22.6235L-5.21741 22.753L-5.14289 22.8808L5.22221 16.8339ZM8.50424 17.7715L13.4071 28.7242L19.4761 26.0075L20.3903 19.4213L8.50424 17.7715ZM9.22028 16.2633L17.1136 25.3019L37.5938 7.41687L10.578 4.3404L9.22028 16.2633ZM5.24388 7.66215L14.1035 15.7558L19.2413 10.1317L16.3383 3.08898L5.24388 7.66215ZM5.35312 4.67741L1.69507 -6.75144L-3.7242 -5.01689L-5.81086 0.276785L5.35312 4.67741ZM8.4555 5.83352L1.72784 15.7702L6.32234 18.881L11.6683 17.3954L8.4555 5.83352ZM11.2785 5.45405L11.3316 -6.54583L11.2785 -6.54607L11.2253 -6.54583L11.2785 5.45405ZM14.1039 5.83352L10.897 17.3971L16.244 18.88L20.837 15.7665L14.1039 5.83352ZM17.2024 4.67741L28.3627 0.267436L26.2749 -5.01598L20.8651 -6.74995L17.2024 4.67741ZM17.3129 7.66215L6.21852 3.08898L3.31196 10.1402L8.4622 15.7655L17.3129 7.66215ZM13.3238 16.2543L11.9981 4.32777L-15.2927 7.36136L5.47174 25.3287L13.3238 16.2543ZM14.8504 21.9791L17.1323 33.7602L17.9018 33.6111L18.6454 33.3633L14.8504 21.9791ZM11.2785 -12C-1.57647 -12 -12 -1.57857 -12 11.2785H12C12 11.6775 11.6771 12 11.2785 12V-12ZM-12 11.2785C-12 21.5822 -5.31355 30.2926 3.92372 33.3667L11.5021 10.5946C11.6652 10.6489 11.7787 10.7415 11.8541 10.8443C11.9437 10.9665 12 11.1337 12 11.2785H-12ZM5.52785 33.78C8.54238 34.3383 12.8473 33.963 16.396 30.7264C19.5842 27.8187 20.4835 24.0988 20.4835 21.438H-3.51646C-3.51646 19.0752 -2.72057 15.6788 0.223154 12.994C3.52745 9.98031 7.4471 9.72738 9.89799 10.1812L5.52785 33.78ZM20.4835 21.438C20.4835 21.2357 20.4801 20.8666 20.4772 20.537C20.474 20.1647 20.4704 19.7255 20.4681 19.2774L-3.53161 19.399C-3.5291 19.8934 -3.52511 20.3696 -3.52187 20.7444C-3.52022 20.9356 -3.51882 21.0935 -3.51781 21.2228C-3.51731 21.2867 -3.51695 21.3379 -3.51672 21.378C-3.51648 21.421 -3.51646 21.4381 -3.51646 21.438H20.4835ZM5.91862 7.6122C6.41853 7.5035 7.41435 7.37514 8.72602 7.61691C10.0834 7.86711 11.4178 8.44906 12.5878 9.32584C13.7117 10.1681 14.4838 11.1291 15.0016 11.9591C15.262 12.3764 15.4713 12.781 15.6412 13.1576C15.7268 13.3473 15.8042 13.5338 15.8745 13.7163C15.9097 13.8077 15.9433 13.8985 15.9754 13.9887C15.9914 14.0338 16.0072 14.0788 16.0225 14.1237C16.0302 14.1462 16.0378 14.1686 16.0453 14.191C16.0491 14.2022 16.0528 14.2134 16.0565 14.2246C16.0584 14.2302 16.0612 14.2386 16.0621 14.2414C16.0649 14.2498 16.0676 14.2582 4.66839 18.0075C-6.73085 21.7568 -6.72808 21.7652 -6.7253 21.7736C-6.72436 21.7765 -6.72157 21.7849 -6.71969 21.7906C-6.71593 21.8019 -6.71213 21.8133 -6.70829 21.8247C-6.70061 21.8476 -6.69276 21.8708 -6.68475 21.8942C-6.66873 21.941 -6.65202 21.9889 -6.63461 22.0378C-6.59981 22.1356 -6.5621 22.2376 -6.52128 22.3436C-6.43976 22.5552 -6.34508 22.7844 -6.23528 23.0277C-6.0169 23.5117 -5.73139 24.0683 -5.35991 24.6637C-4.61986 25.8497 -3.48616 27.2714 -1.80454 28.5316C1.97741 31.3657 6.61953 32.0206 11.0179 31.0642L5.91862 7.6122ZM15.8348 13.6131C14.9729 11.4228 13.7473 9.62418 12.3464 8.21954C11.6614 7.53263 10.9692 6.97478 10.3122 6.52563C9.98463 6.30166 9.66728 6.10572 9.36534 5.93462C9.21438 5.84907 9.06724 5.7697 8.92453 5.69611C8.85317 5.65931 8.7829 5.62395 8.7138 5.58996C8.67925 5.57297 8.64499 5.55633 8.61103 5.54002C8.59405 5.53187 8.57714 5.5238 8.56031 5.51581C8.5519 5.51182 8.5435 5.50784 8.53512 5.50389C8.53093 5.50192 8.52466 5.49897 8.52257 5.49798C8.51631 5.49504 8.51004 5.4921 3.41613 16.3573C-1.67778 27.2225 -1.68404 27.2195 -1.69029 27.2166C-1.69237 27.2156 -1.69862 27.2127 -1.70279 27.2107C-1.71112 27.2068 -1.71945 27.2028 -1.72778 27.1989C-1.74443 27.191 -1.76107 27.183 -1.77769 27.175C-1.81094 27.1591 -1.84413 27.143 -1.87727 27.1267C-1.94354 27.0941 -2.00959 27.0608 -2.07541 27.0269C-2.20704 26.959 -2.3378 26.8883 -2.46755 26.8148C-2.72705 26.6678 -2.98265 26.5091 -3.23293 26.338C-3.73526 25.9945 -4.21054 25.6048 -4.6467 25.1675C-5.54974 24.2621 -6.14912 23.2885 -6.49803 22.4019L15.8348 13.6131ZM10.1918 6.45321C10.4222 6.61083 10.9349 6.97709 11.5326 7.5639C12.0449 8.0669 13.2219 9.30961 14.0622 11.3127C15.0274 13.6133 15.5511 17.0438 13.9938 20.6218C12.5981 23.8283 10.2418 25.4768 9.01469 26.1765C7.7348 26.9063 6.61544 27.2209 6.07255 27.3548C5.45605 27.5069 4.95319 27.5749 4.65017 27.6082C4.32673 27.6438 4.05717 27.6584 3.86443 27.6651C3.76268 27.6686 3.66836 27.6704 3.58249 27.6712C3.53922 27.6715 3.4972 27.6716 3.45649 27.6715C3.43611 27.6715 3.41597 27.6713 3.39608 27.6712C3.38613 27.6711 3.37624 27.671 3.36639 27.6709C3.36147 27.6709 3.35656 27.6708 3.35166 27.6707C3.34922 27.6707 3.34555 27.6707 3.34433 27.6707C3.34067 27.6706 3.33701 27.6706 3.49327 15.6716C3.64952 3.67259 3.64585 3.67254 3.64218 3.6725C3.64094 3.67248 3.63724 3.67244 3.63477 3.67241C3.6298 3.67235 3.62479 3.67229 3.61974 3.67224C3.60963 3.67213 3.59934 3.67204 3.58886 3.67195C3.56792 3.67179 3.54622 3.67166 3.52379 3.6716C3.47898 3.67148 3.4309 3.67158 3.37982 3.67201C3.27834 3.67287 3.16138 3.67505 3.03153 3.67955C2.78261 3.6882 2.43509 3.70711 2.02447 3.75231C1.68086 3.79013 -0.529924 3.99153 -2.87273 5.32731C-4.17347 6.06894 -6.58738 7.77037 -8.01207 11.0436C-9.59841 14.6882 -9.07511 18.1992 -8.06923 20.597C-6.55628 24.2035 -3.71749 26.0164 -3.35952 26.2613L10.1918 6.45321ZM2.65185 27.642C-0.577189 27.4151 -2.65938 25.7778 -3.55242 24.9156C-4.04002 24.4449 -4.39494 23.9992 -4.64378 23.6519C-4.77372 23.4705 -4.88985 23.2947 -4.9941 23.1272C-5.04661 23.0428 -5.09717 22.9588 -5.14596 22.8753C-5.17039 22.8335 -5.19447 22.7916 -5.21824 22.7497C-5.23012 22.7287 -5.24194 22.7077 -5.25369 22.6867C-5.25956 22.6762 -5.26542 22.6657 -5.27127 22.6551C-5.27419 22.6499 -5.27711 22.6446 -5.28002 22.6393C-5.28148 22.6367 -5.28367 22.6327 -5.28439 22.6314C-5.28657 22.6274 -5.28876 22.6235 5.22221 16.8339C15.7332 11.0443 15.731 11.0403 15.7288 11.0363C15.7281 11.035 15.7259 11.031 15.7244 11.0283C15.7214 11.023 15.7185 11.0176 15.7155 11.0122C15.7095 11.0014 15.7034 10.9905 15.6972 10.9795C15.6849 10.9574 15.6722 10.9349 15.6592 10.9118C15.6331 10.8658 15.6055 10.8179 15.5764 10.7681C15.5184 10.6687 15.4539 10.5614 15.3828 10.4472C15.2416 10.2202 15.07 9.95918 14.8664 9.67505C14.4704 9.12221 13.8956 8.40089 13.1173 7.64951C11.643 6.22607 8.6963 4.00769 4.33468 3.70111L2.65185 27.642ZM-5.14289 22.8808C-2.63357 27.182 1.53805 29.6172 5.9312 30.0097C9.49575 30.3282 12.2718 29.2324 13.4071 28.7242L3.60141 6.81877C4.0931 6.59867 5.73107 5.89623 8.06698 6.10493C9.38743 6.2229 10.9424 6.63892 12.4501 7.5856C13.9662 8.53759 14.9755 9.73835 15.5873 10.787L-5.14289 22.8808ZM20.3903 19.4213C20.1662 21.0359 19.3337 23.3631 17.1136 25.3019L1.32701 7.22474C-1.53819 9.72688 -2.95531 13.049 -3.38181 16.1217L20.3903 19.4213ZM10.578 4.3404C10.0239 4.27729 11.6534 4.3064 13.4386 5.80881C14.4436 6.65463 15.1989 7.71838 15.6472 8.82007C16.0648 9.84622 16.0818 10.5697 16.0818 10.6894H-7.91824C-7.91824 15.4792 -6.32377 20.5452 -2.01533 24.1712C1.71285 27.3088 5.91166 27.9641 7.86253 28.1863L10.578 4.3404ZM16.0818 10.6894C16.0818 11.5358 15.9242 12.4849 15.5441 13.4415C15.1674 14.3894 14.6447 15.1634 14.1035 15.7558L-3.61576 -0.431481C-6.26274 2.46602 -7.91824 6.3253 -7.91824 10.6894H16.0818ZM16.3383 3.08898C16.987 4.66279 17.3895 6.86494 16.5171 9.07804L-5.81086 0.276785C-7.90797 5.59696 -6.7335 10.0933 -5.85054 12.2353L16.3383 3.08898ZM5.35312 4.67741C9.01117 16.1063 8.99968 16.1099 8.98819 16.1136C8.98436 16.1148 8.97286 16.1185 8.9652 16.1209C8.94987 16.1257 8.93454 16.1305 8.9192 16.1353C8.88852 16.1448 8.85781 16.1543 8.82708 16.1636C8.76562 16.1821 8.70407 16.2002 8.64246 16.2178C8.5192 16.2529 8.39575 16.2858 8.27215 16.3167C8.02478 16.3785 7.77769 16.4316 7.53131 16.4761C7.03723 16.5653 6.55369 16.6187 6.08472 16.6402C5.13901 16.6836 4.30854 16.595 3.6227 16.4506C2.27006 16.1657 1.61805 15.6959 1.72784 15.7702L15.1832 -4.10321C13.1377 -5.48812 10.9345 -6.53592 8.56945 -7.03408C7.37743 -7.28517 6.17548 -7.38917 4.98484 -7.33454C4.39341 -7.30741 3.81903 -7.24175 3.26474 -7.14162C2.98825 -7.09167 2.71871 -7.0335 2.45642 -6.96799C2.32535 -6.93525 2.19632 -6.90074 2.06935 -6.86458C2.00587 -6.8465 1.94294 -6.82803 1.88055 -6.80916C1.84936 -6.79973 1.8183 -6.7902 1.78739 -6.78058C1.77193 -6.77577 1.75651 -6.77093 1.74112 -6.76608C1.73343 -6.76365 1.72191 -6.76 1.71807 -6.75878C1.70657 -6.75511 1.69507 -6.75144 5.35312 4.67741ZM11.6683 17.3954C11.5537 17.4273 11.4741 17.4406 11.4299 17.4465C11.385 17.4525 11.3539 17.4538 11.3316 17.4539L11.2253 -6.54583C9.28546 -6.53724 7.25162 -6.28663 5.24272 -5.7284L11.6683 17.3954ZM11.2253 17.4539C11.2029 17.4538 11.1726 17.4525 11.1289 17.4467C11.0859 17.441 11.0086 17.428 10.897 17.3971L17.3108 -5.73003C15.3041 -6.28655 13.2718 -6.53724 11.3316 -6.54583L11.2253 17.4539ZM20.837 15.7665C20.9458 15.6928 20.292 16.1641 18.9368 16.4499C18.2496 16.5949 17.4176 16.6837 16.4703 16.6402C16.0005 16.6186 15.5162 16.5651 15.0214 16.4756C14.7747 16.4309 14.5272 16.3777 14.2796 16.3158C14.1558 16.2848 14.0322 16.2517 13.9088 16.2165C13.8471 16.199 13.7855 16.1808 13.724 16.1622C13.6932 16.1529 13.6625 16.1434 13.6317 16.1339C13.6164 16.1291 13.601 16.1243 13.5857 16.1194C13.578 16.117 13.5665 16.1133 13.5627 16.1121C13.5512 16.1085 13.5397 16.1048 17.2024 4.67741C20.8651 -6.74995 20.8536 -6.75363 20.8421 -6.7573C20.8382 -6.75853 20.8267 -6.76219 20.819 -6.76462C20.8036 -6.76949 20.7881 -6.77434 20.7727 -6.77916C20.7417 -6.7888 20.7106 -6.79836 20.6794 -6.80781C20.6169 -6.82672 20.5539 -6.84525 20.4904 -6.86337C20.3633 -6.89962 20.2341 -6.93422 20.1029 -6.96704C19.8403 -7.03271 19.5705 -7.09103 19.2937 -7.14111C18.7387 -7.24149 18.1637 -7.30731 17.5716 -7.33451C16.3797 -7.38927 15.1767 -7.285 13.984 -7.03344C11.6177 -6.53437 9.4147 -5.48501 7.37073 -4.09949L20.837 15.7665ZM6.04208 9.08739C5.16594 6.87013 5.56958 4.66332 6.21852 3.08898L28.4074 12.2353C29.2905 10.0927 30.4666 5.59177 28.3627 0.267436L6.04208 9.08739ZM8.4622 15.7655C7.91235 15.1649 7.38591 14.3835 7.00845 13.431C6.62808 12.4711 6.47365 11.525 6.47365 10.6894H30.4737C30.4737 6.3457 28.8352 2.47671 26.1637 -0.441202L8.4622 15.7655ZM6.47365 10.6894C6.47365 10.5738 6.48983 9.84786 6.91019 8.81682C7.36202 7.70857 8.12404 6.6386 9.13841 5.78957C10.9358 4.28518 12.5742 4.26373 11.9981 4.32777L14.6495 28.1809C16.5848 27.9657 20.7982 27.3278 24.5426 24.1937C28.8786 20.5645 30.4737 15.4813 30.4737 10.6894H6.47365ZM5.47174 25.3287C2.69152 22.923 2.08876 19.9736 2.08876 18.3429H26.0888C26.0888 14.6079 24.7651 10.2856 21.1759 7.1799L5.47174 25.3287ZM2.08876 18.3429C2.08876 19.0637 2.08563 19.718 2.08244 20.2442C2.07954 20.7212 2.07567 21.2041 2.07567 21.438H26.0757C26.0757 21.3005 26.0783 20.9903 26.082 20.39C26.0853 19.8387 26.0888 19.1312 26.0888 18.3429H2.08876ZM2.07567 21.438C2.07567 24.0054 2.918 27.7667 6.1573 30.7244C9.77736 34.0297 14.1557 34.3367 17.1323 33.7602L12.5686 10.1981C14.9735 9.73228 18.9644 9.91878 22.34 13.0009C25.3348 15.7354 26.0757 19.1708 26.0757 21.438H2.07567ZM18.6454 33.3633C27.8795 30.285 34.5568 21.576 34.5568 11.2785H10.5568C10.5568 11.1354 10.6126 10.9686 10.7025 10.8458C10.7783 10.7424 10.8923 10.6494 11.0555 10.595L18.6454 33.3633ZM34.5568 11.2785C34.5568 -1.57802 24.1345 -12 11.2785 -12V12C10.8798 12 10.5568 11.6769 10.5568 11.2785L34.5568 11.2785Z" fill="#E3E3E3" mask="url(#path-1-inside-1_807_17)"/>
<mask id="path-3-inside-2_807_17" fill="white">
<path d="M4.22395 16.0663C4.19919 16.1222 4.11091 16.1391 4.03068 16.1007C3.94886 16.0639 3.90286 15.9874 3.9294 15.9312C3.95372 15.8735 4.042 15.8574 4.12365 15.8962C4.20564 15.9329 4.25235 16.01 4.22395 16.0663ZM4.77874 16.5612C4.72496 16.6111 4.61979 16.588 4.54841 16.5091C4.47464 16.4305 4.46084 16.3254 4.51541 16.2747C4.57087 16.2249 4.67286 16.2482 4.74681 16.3269C4.82058 16.4065 4.83491 16.5109 4.77866 16.5613M5.15937 17.1946C5.09019 17.2426 4.97715 17.1976 4.90736 17.0973C4.83827 16.9971 4.83827 16.8768 4.90886 16.8286C4.97892 16.7803 5.09019 16.8237 5.16096 16.9232C5.22995 17.0252 5.22995 17.1455 5.15928 17.1947M5.80296 17.9281C5.74113 17.9963 5.60951 17.978 5.5131 17.885C5.41456 17.794 5.38705 17.665 5.44906 17.5968C5.51159 17.5285 5.64401 17.5477 5.74113 17.64C5.83905 17.7307 5.86886 17.8607 5.80296 17.9281ZM6.6348 18.1758C6.60764 18.2641 6.48079 18.3043 6.35307 18.2667C6.22551 18.2281 6.14201 18.1246 6.16775 18.0354C6.19429 17.9465 6.32166 17.9046 6.45037 17.9448C6.57774 17.9832 6.66133 18.0859 6.6348 18.1758ZM7.58162 18.2808C7.5848 18.3739 7.47644 18.451 7.34235 18.4527C7.20745 18.4556 7.09839 18.3803 7.09697 18.2889C7.09697 18.1949 7.20285 18.1185 7.33766 18.1163C7.47176 18.1136 7.58162 18.1884 7.58162 18.2808ZM8.51163 18.2452C8.52773 18.3359 8.4345 18.4292 8.30138 18.4539C8.17046 18.4778 8.04928 18.4218 8.03256 18.3319C8.01629 18.2388 8.11129 18.1457 8.24193 18.1215C8.37532 18.0983 8.49465 18.1529 8.51163 18.2452Z"/>
</mask>
<path d="M4.22395 16.0663L2.88485 15.3904L2.86763 15.4245L2.85217 15.4595L4.22395 16.0663ZM4.03068 16.1007L4.67813 14.7476L4.66211 14.7399L4.64592 14.7326L4.03068 16.1007ZM3.9294 15.9312L5.28605 16.5711L5.29936 16.5429L5.31149 16.5141L3.9294 15.9312ZM4.12365 15.8962L3.48057 17.2513L3.49558 17.2584L3.51074 17.2652L4.12365 15.8962ZM4.54841 16.5091L5.66018 15.5022L5.65136 15.4925L5.64237 15.4829L4.54841 16.5091ZM4.51541 16.2747L3.51324 15.1586L3.50389 15.1671L3.49467 15.1756L4.51541 16.2747ZM4.74681 16.3269L5.8465 15.3067L5.84012 15.3L4.74681 16.3269ZM4.90736 17.0973L3.67233 17.9486L3.67607 17.954L4.90736 17.0973ZM4.90886 16.8286L5.75483 18.0672L5.75918 18.0643L4.90886 16.8286ZM5.16096 16.9232L6.40337 16.0827L6.39355 16.0682L6.38339 16.0539L5.16096 16.9232ZM5.80296 17.9281L4.73041 16.8795L4.711 16.8994L4.69234 16.9199L5.80296 17.9281ZM5.5131 17.885L6.55478 16.8057L6.54269 16.794L6.53035 16.7826L5.5131 17.885ZM5.44906 17.5968L4.34284 16.5837L4.33921 16.5877L5.44906 17.5968ZM5.74113 17.64L4.70806 18.7275L4.71474 18.7338L4.72149 18.7401L5.74113 17.64ZM6.6348 18.1758L8.06849 18.6168L8.07099 18.6087L8.07339 18.6006L6.6348 18.1758ZM6.35307 18.2667L5.91801 19.7023L5.93046 19.706L6.35307 18.2667ZM6.16775 18.0354L4.73036 17.6063L4.7265 17.6197L6.16775 18.0354ZM6.45037 17.9448L6.00355 19.3767L6.0166 19.3807L6.45037 17.9448ZM7.58162 18.2808H6.08162V18.3065L6.08249 18.3321L7.58162 18.2808ZM7.34235 18.4527L7.32355 16.9527L7.3099 16.953L7.34235 18.4527ZM7.09697 18.2889H5.59697V18.3005L5.59715 18.3121L7.09697 18.2889ZM7.33766 18.1163L7.36226 19.6161L7.36734 19.616L7.33766 18.1163ZM8.51163 18.2452L9.98861 17.9832L9.98685 17.9736L8.51163 18.2452ZM8.30138 18.4539L8.57058 19.9296L8.57574 19.9286L8.30138 18.4539ZM8.03256 18.3319L6.55499 18.5903L6.55636 18.5981L6.55781 18.6059L8.03256 18.3319ZM8.24193 18.1215L7.98517 16.6436L7.97723 16.645L7.9693 16.6465L8.24193 18.1215ZM2.85217 15.4595C3.10059 14.8978 3.59161 14.6955 3.87967 14.6431C4.18254 14.588 4.45972 14.6431 4.67813 14.7476L3.38323 17.4537C3.68187 17.5966 4.0433 17.6625 4.41656 17.5946C4.77501 17.5294 5.32255 17.2907 5.59574 16.673L2.85217 15.4595ZM4.64592 14.7326C4.84988 14.8244 5.06859 14.9892 5.22626 15.2525C5.37966 15.5086 5.54838 16.015 5.28605 16.5711L2.57275 15.2913C2.28388 15.9036 2.46233 16.4763 2.65255 16.7939C2.84704 17.1187 3.12966 17.3402 3.41544 17.4687L4.64592 14.7326ZM5.31149 16.5141C5.07037 17.0858 4.57368 17.299 4.27213 17.3535C3.96328 17.4094 3.68852 17.35 3.48057 17.2513L4.76672 14.541C4.47713 14.4036 4.1174 14.3328 3.73792 14.4015C3.36575 14.4688 2.81275 14.7189 2.5473 15.3482L5.31149 16.5141ZM3.51074 17.2652C3.30585 17.1735 3.0847 17.0075 2.92591 16.7405C2.77048 16.4791 2.59968 15.9554 2.88485 15.3904L5.56306 16.7421C5.87662 16.1209 5.69667 15.5304 5.50448 15.2072C5.30894 14.8784 5.02343 14.6555 4.73655 14.5271L3.51074 17.2652ZM3.75862 15.4615C4.20374 15.0486 4.72593 15.0587 4.99855 15.1198C5.28629 15.1844 5.508 15.3342 5.66018 15.5022L3.43664 17.5161C3.6602 17.7629 3.97019 17.9637 4.34181 18.0471C4.6983 18.1271 5.29996 18.1237 5.79887 17.661L3.75862 15.4615ZM5.64237 15.4829C5.79287 15.6433 5.92839 15.8767 5.96973 16.1767C6.01009 16.4694 5.96503 16.9756 5.53616 17.3739L3.49467 15.1756C3.01122 15.6246 2.94577 16.2086 2.99783 16.5863C3.05087 16.9711 3.23017 17.2964 3.45445 17.5354L5.64237 15.4829ZM5.51758 17.3908C5.08448 17.7797 4.57928 17.7804 4.29308 17.7156C4.00342 17.6501 3.79185 17.5012 3.6535 17.3539L5.84012 15.3C5.62783 15.074 5.32829 14.8741 4.95528 14.7896C4.58573 14.706 4.00181 14.72 3.51324 15.1586L5.51758 17.3908ZM3.64714 17.3471C3.50411 17.1929 3.36671 16.962 3.32523 16.6576C3.28387 16.354 3.33668 15.8394 3.77754 15.4443L5.77977 17.6784C6.27689 17.2328 6.35067 16.6408 6.29776 16.2525C6.24473 15.8634 6.06328 15.5405 5.84648 15.3068L3.64714 17.3471ZM4.30383 15.9625C4.80508 15.6144 5.32223 15.7041 5.57846 15.804C5.84454 15.9078 6.0258 16.0784 6.13865 16.2406L3.67607 17.954C3.85871 18.2165 4.13139 18.4598 4.48873 18.5991C4.83622 18.7346 5.44448 18.8228 6.0149 18.4267L4.30383 15.9625ZM6.14237 16.246C6.25874 16.4148 6.35686 16.654 6.35572 16.9492C6.3546 17.2404 6.23945 17.7363 5.75483 18.0672L4.06289 15.5899C3.50769 15.9691 3.35725 16.5492 3.35574 16.9376C3.35423 17.3301 3.48689 17.6796 3.67234 17.9486L6.14237 16.246ZM5.75918 18.0643C5.27412 18.398 4.76983 18.3244 4.50212 18.2228C4.23136 18.12 4.04974 17.9489 3.93852 17.7925L6.38339 16.0539C6.20141 15.798 5.92877 15.5555 5.56716 15.4182C5.20861 15.282 4.61365 15.2109 4.05854 15.5929L5.75918 18.0643ZM3.91855 17.7637C3.80783 17.6 3.71125 17.3651 3.71251 17.0723C3.71375 16.782 3.82803 16.2936 4.3025 15.9634L6.01605 18.4259C6.5612 18.0466 6.71081 17.4734 6.71248 17.0852C6.71416 16.6944 6.58308 16.3484 6.40337 16.0827L3.91855 17.7637ZM4.69234 16.9199C5.09278 16.4788 5.60608 16.4417 5.88718 16.4827C6.17838 16.5251 6.40232 16.6585 6.55478 16.8057L4.47142 18.9643C4.72029 19.2045 5.05825 19.3936 5.45482 19.4513C5.84129 19.5076 6.45132 19.4456 6.91359 18.9364L4.69234 16.9199ZM6.53035 16.7826C6.68038 16.9211 6.82433 17.1297 6.88602 17.4109C6.94578 17.6832 6.94638 18.1797 6.5589 18.6059L4.33921 16.5877C3.88972 17.0821 3.87308 17.6772 3.95573 18.0538C4.0403 18.4393 4.24727 18.758 4.49584 18.9873L6.53035 16.7826ZM6.55526 18.6099C6.15228 19.0499 5.63933 19.0827 5.3641 19.0422C5.07829 19.0003 4.85849 18.8704 4.70806 18.7275L6.77421 16.5524C6.52665 16.3173 6.19209 16.1317 5.80015 16.0741C5.41879 16.0181 4.80837 16.0754 4.34285 16.5837L6.55526 18.6099ZM4.72149 18.7401C4.57589 18.6052 4.43057 18.3983 4.36825 18.1139C4.30685 17.8337 4.30855 17.311 4.73041 16.8795L6.87552 18.9768C7.36328 18.4779 7.38302 17.8565 7.29872 17.4717C7.21348 17.0828 7.0043 16.7655 6.76078 16.5398L4.72149 18.7401ZM5.2011 17.7348C5.37465 17.1706 5.81633 16.9226 6.07338 16.8402C6.34063 16.7544 6.58592 16.7718 6.77567 16.8275L5.93046 19.706C6.24794 19.7992 6.62052 19.8153 6.98991 19.6967C7.3491 19.5815 7.86778 19.2693 8.06849 18.6168L5.2011 17.7348ZM6.7881 16.8312C6.9794 16.8892 7.19578 17.0107 7.37269 17.2311C7.54378 17.4442 7.77053 17.891 7.60901 18.451L4.7265 17.6197C4.53924 18.269 4.79487 18.8121 5.03316 19.109C5.27728 19.4131 5.59918 19.6056 5.91803 19.7023L6.7881 16.8312ZM7.60508 18.4644C7.4363 19.0298 6.99613 19.2837 6.73177 19.3691C6.457 19.4578 6.20217 19.4387 6.00357 19.3767L6.89716 16.5129C6.56986 16.4107 6.187 16.3924 5.80973 16.5143C5.44286 16.6328 4.92574 16.952 4.73042 17.6063L7.60508 18.4644ZM6.0166 19.3807C5.82781 19.3237 5.60978 19.2032 5.43075 18.9803C5.25523 18.7617 5.03096 18.3107 5.1962 17.751L8.07339 18.6006C8.26517 17.9511 8.01237 17.4038 7.76985 17.1018C7.52381 16.7954 7.2003 16.6044 6.88413 16.5089L6.0166 19.3807ZM6.08249 18.3321C6.06196 17.7321 6.40941 17.3467 6.63999 17.1816C6.87627 17.0123 7.12314 16.9553 7.32355 16.9528L7.36114 19.9526C7.69565 19.9484 8.06375 19.852 8.38694 19.6205C8.70443 19.393 9.10446 18.9225 9.08074 18.2295L6.08249 18.3321ZM7.3099 16.953C7.51744 16.9485 7.76825 17.0006 8.00845 17.1626C8.23917 17.3183 8.58775 17.6813 8.59679 18.2657L5.59715 18.3121C5.60761 18.9879 6.01143 19.4343 6.33076 19.6497C6.65957 19.8715 7.03236 19.9597 7.3748 19.9523L7.3099 16.953ZM8.59697 18.2889C8.59697 18.8494 8.27744 19.2172 8.042 19.3864C7.80506 19.5566 7.5585 19.6129 7.36226 19.6161L7.31306 16.6165C6.98201 16.6219 6.61511 16.7175 6.29153 16.95C5.96944 17.1814 5.59697 17.6344 5.59697 18.2889H8.59697ZM7.36734 19.616C7.1617 19.6201 6.91087 19.5686 6.66965 19.4054C6.43591 19.2474 6.08162 18.8756 6.08162 18.2808H9.08162C9.08162 17.5935 8.6724 17.1382 8.3502 16.9203C8.02052 16.6974 7.64771 16.6099 7.30798 16.6166L7.36734 19.616ZM7.03469 18.5072C6.93242 17.9306 7.20716 17.5073 7.40444 17.311C7.60731 17.1091 7.83658 17.0147 8.02701 16.9792L8.57574 19.9286C8.8993 19.8684 9.24174 19.7149 9.52049 19.4376C9.79363 19.1658 10.1069 18.6505 9.98858 17.9832L7.03469 18.5072ZM8.03217 16.9783C8.23767 16.9408 8.48965 16.9535 8.74714 17.0711C8.99184 17.1828 9.39979 17.4792 9.50731 18.0578L6.55781 18.6059C6.68205 19.2744 7.15895 19.6438 7.50115 19.8001C7.85614 19.9622 8.23417 19.9909 8.57058 19.9296L8.03217 16.9783ZM9.51013 18.0734C9.61001 18.6445 9.33941 19.0655 9.14126 19.263C8.93942 19.4643 8.7097 19.5605 8.51457 19.5965L7.9693 16.6465C7.64352 16.7067 7.30098 16.8615 7.02304 17.1386C6.7488 17.4121 6.43883 17.9262 6.55499 18.5903L9.51013 18.0734ZM8.4987 19.5994C8.3094 19.6323 8.05948 19.6246 7.79565 19.5037C7.53406 19.3839 7.1402 19.0805 7.03642 18.5167L9.98685 17.9736C9.86609 17.3176 9.40407 16.9408 9.04522 16.7764C8.68414 16.6109 8.30786 16.5876 7.98517 16.6436L8.4987 19.5994Z" fill="#E3E3E3" mask="url(#path-3-inside-2_807_17)"/>
</svg>
