<svg width="25" height="24" viewBox="0 0 25 24" fill="none" xmlns="http://www.w3.org/2000/svg">
<mask id="path-1-inside-1_807_20" fill="white">
<path d="M12.3038 0C5.50946 0 0 5.5085 0 12.3038C0 17.74 3.5254 22.3519 8.4141 23.9789C9.02897 24.0927 9.25477 23.712 9.25477 23.387C9.25477 23.0936 9.24329 22.1243 9.23808 21.0962C5.81506 21.8405 5.09279 19.6445 5.09279 19.6445C4.53311 18.2224 3.72669 17.8443 3.72669 17.8443C2.61042 17.0806 3.81083 17.0963 3.81083 17.0963C5.04637 17.1831 5.69695 18.3642 5.69695 18.3642C6.79431 20.2452 8.57525 19.7014 9.27735 19.3871C9.38775 18.5918 9.70667 18.0491 10.0585 17.7418C7.32572 17.4306 4.45283 16.3756 4.45283 11.6612C4.45283 10.318 4.93347 9.22033 5.72059 8.35871C5.59283 8.04876 5.17172 6.7974 5.83977 5.10263C5.83977 5.10263 6.87295 4.77194 9.22419 6.36384C10.2056 6.09114 11.2581 5.9545 12.3038 5.94987C13.3494 5.9545 14.4028 6.09114 15.3861 6.36384C17.7345 4.77194 18.7662 5.10263 18.7662 5.10263C19.4359 6.7974 19.0146 8.04876 18.8868 8.35871C19.6757 9.22033 20.1531 10.3179 20.1531 11.6612C20.1531 16.3868 17.2748 17.4274 14.5351 17.732C14.9763 18.1138 15.3696 18.8626 15.3696 20.0105C15.3696 21.6567 15.3553 22.9817 15.3553 23.387C15.3553 23.7144 15.5767 24.098 16.2005 23.9772C21.0865 22.3485 24.6074 17.7382 24.6074 12.3038C24.6074 5.5085 19.0988 0 12.3038 0Z"/>
</mask>
<path d="M8.4141 23.9789L4.62489 35.3649L5.41266 35.6271L6.22903 35.7782L8.4141 23.9789ZM9.23808 21.0962L21.2379 21.0354L21.1628 6.223L6.68846 9.37021L9.23808 21.0962ZM5.09279 19.6445L16.492 15.8952L16.3848 15.5693L16.2592 15.2501L5.09279 19.6445ZM3.72669 17.8443L-3.04896 27.7484L-2.24701 28.297L-1.36722 28.7095L3.72669 17.8443ZM3.81083 17.0963L4.65225 5.1258L4.31008 5.10175L3.96709 5.09728L3.81083 17.0963ZM5.69695 18.3642L-4.81401 24.1538L-4.74266 24.2834L-4.66814 24.4111L5.69695 18.3642ZM9.27735 19.3871L14.1802 30.3398L20.2492 27.6231L21.1634 21.0369L9.27735 19.3871ZM10.0585 17.7418L17.9518 26.7804L38.432 8.89535L11.4162 5.81888L10.0585 17.7418ZM5.72059 8.35871L14.5802 16.4523L19.7181 10.8283L16.815 3.78554L5.72059 8.35871ZM5.83977 5.10263L2.18172 -6.32622L-3.23755 -4.59167L-5.32421 0.702003L5.83977 5.10263ZM9.22419 6.36384L2.49652 16.3006L7.09102 19.4113L12.437 17.9258L9.22419 6.36384ZM12.3038 5.94987L12.3569 -6.05001L12.3038 -6.05025L12.2506 -6.05001L12.3038 5.94987ZM15.3861 6.36384L12.1791 17.9274L17.5262 19.4103L22.1192 16.2968L15.3861 6.36384ZM18.7662 5.10263L29.9265 0.692655L27.8388 -4.59076L22.4289 -6.32473L18.7662 5.10263ZM18.8868 8.35871L7.79243 3.78554L4.88587 10.8368L10.0361 16.4621L18.8868 8.35871ZM14.5351 17.732L13.2093 5.80544L-14.0814 8.83902L6.68299 26.8064L14.5351 17.732ZM16.2005 23.9772L18.4823 35.7583L19.2518 35.6092L19.9954 35.3614L16.2005 23.9772ZM12.3038 -12C-1.11734 -12 -12 -1.11953 -12 12.3038H12C12 12.2399 12.0106 12.2092 12.0189 12.1896C12.0306 12.162 12.0527 12.1255 12.0891 12.0892C12.1254 12.0528 12.1619 12.0306 12.1896 12.0189C12.2094 12.0106 12.2401 12 12.3038 12V-12ZM-12 12.3038C-12 23.0605 -5.01977 32.1552 4.62489 35.3649L12.2033 12.5928C12.1627 12.5793 12.1009 12.542 12.0519 12.4751C12.031 12.4466 12.0193 12.4217 12.0129 12.4023C12.0078 12.3869 12 12.3584 12 12.3038H-12ZM6.22903 35.7782C9.26917 36.3412 13.5917 35.9604 17.1515 32.7137C20.3507 29.7958 21.2548 26.0613 21.2548 23.387H-2.74523C-2.74523 21.0376 -1.95405 17.656 0.978572 14.9813C4.27176 11.9777 8.1739 11.7304 10.5992 12.1795L6.22903 35.7782ZM21.2548 23.387C21.2548 23.1724 21.2511 22.777 21.2479 22.4134C21.2444 22.0072 21.2404 21.5263 21.2379 21.0354L-2.76177 21.1571C-2.75904 21.6942 -2.7547 22.212 -2.75117 22.6208C-2.74937 22.829 -2.74784 23.002 -2.74674 23.1436C-2.74619 23.2136 -2.74579 23.2704 -2.74553 23.3152C-2.74541 23.3374 -2.74532 23.3547 -2.74528 23.3678C-2.74523 23.3814 -2.74523 23.3872 -2.74523 23.387H21.2548ZM6.68846 9.37021C7.11706 9.27702 8.05563 9.14886 9.32155 9.3822C10.6331 9.62396 11.9333 10.1889 13.078 11.0466C14.1765 11.8698 14.9322 12.81 15.4399 13.6237C15.6952 14.0329 15.901 14.4307 16.0688 14.8024C16.1532 14.9896 16.2298 15.1742 16.2996 15.3554C16.3346 15.4461 16.368 15.5364 16.4 15.6263C16.416 15.6712 16.4316 15.7161 16.447 15.7609C16.4546 15.7833 16.4622 15.8057 16.4697 15.8281C16.4735 15.8393 16.4772 15.8505 16.4809 15.8617C16.4828 15.8672 16.4856 15.8756 16.4865 15.8784C16.4893 15.8868 16.492 15.8952 5.09279 19.6445C-6.30645 23.3939 -6.30368 23.4023 -6.3009 23.4107C-6.29996 23.4135 -6.29716 23.422 -6.29529 23.4276C-6.29153 23.4389 -6.28772 23.4503 -6.28388 23.4618C-6.27619 23.4847 -6.26833 23.5079 -6.26031 23.5314C-6.24425 23.5783 -6.2275 23.6263 -6.21003 23.6754C-6.1751 23.7735 -6.13721 23.876 -6.09614 23.9827C-6.01411 24.1956 -5.91864 24.4267 -5.80774 24.6725C-5.58715 25.1614 -5.29817 25.7249 -4.92165 26.3283C-4.1715 27.5306 -3.02136 28.9732 -1.31439 30.2523C2.51826 33.1245 7.24675 33.8096 11.7877 32.8222L6.68846 9.37021ZM16.2592 15.2501C15.3739 13.0006 14.12 11.1645 12.6964 9.73713C12 9.03887 11.298 8.47338 10.634 8.01943C10.3029 7.79306 9.98274 7.59543 9.67888 7.42322C9.52695 7.33713 9.37906 7.25737 9.23585 7.18351C9.16424 7.14659 9.09378 7.11113 9.02456 7.07708C8.98994 7.06006 8.95563 7.04339 8.92164 7.02707C8.90464 7.01891 8.88772 7.01083 8.87088 7.00284C8.86246 6.99885 8.85406 6.99487 8.84568 6.99092C8.84149 6.98894 8.83522 6.98599 8.83313 6.98501C8.82686 6.98206 8.8206 6.97913 3.72669 17.8443C-1.36722 28.7095 -1.37348 28.7065 -1.37973 28.7036C-1.38181 28.7026 -1.38806 28.6997 -1.39223 28.6977C-1.40056 28.6938 -1.40889 28.6899 -1.41721 28.6859C-1.43385 28.678 -1.45048 28.6701 -1.46708 28.6621C-1.5003 28.6461 -1.53344 28.63 -1.56652 28.6138C-1.63266 28.5813 -1.69852 28.5481 -1.76409 28.5143C-1.89521 28.4467 -2.02523 28.3764 -2.15401 28.3034C-2.41159 28.1575 -2.66438 28.0005 -2.91114 27.8318C-3.40644 27.4931 -3.87187 27.1111 -4.29671 26.6851C-5.17712 25.8023 -5.74804 24.8663 -6.07363 24.039L16.2592 15.2501ZM10.5023 7.94024C10.7211 8.0899 11.2252 8.44922 11.8167 9.02998C12.3229 9.52692 13.4962 10.7645 14.3346 12.7631C15.2979 15.0593 15.8217 18.4862 14.2657 22.0611C12.8714 25.2646 10.5177 26.9107 9.29387 27.6085C8.01733 28.3363 6.90204 28.6496 6.36337 28.7825C5.7511 28.9335 5.25262 29.0008 4.95356 29.0337C4.63408 29.0689 4.36807 29.0832 4.17788 29.0899C4.07741 29.0933 3.98412 29.0951 3.89896 29.0958C3.85605 29.0962 3.8143 29.0963 3.77378 29.0962C3.75349 29.0961 3.73342 29.096 3.71358 29.0959C3.70365 29.0958 3.69377 29.0957 3.68394 29.0956C3.67903 29.0955 3.67412 29.0955 3.66923 29.0954C3.66679 29.0954 3.66311 29.0954 3.6619 29.0953C3.65824 29.0953 3.65458 29.0952 3.81083 17.0963C3.96709 5.09728 3.96342 5.09723 3.95975 5.09719C3.95851 5.09717 3.95481 5.09713 3.95233 5.0971C3.94736 5.09704 3.94235 5.09698 3.93729 5.09693C3.92717 5.09682 3.91686 5.09673 3.90636 5.09664C3.88537 5.09647 3.8636 5.09635 3.84107 5.09629C3.79608 5.09616 3.74773 5.09627 3.69629 5.0967C3.59409 5.09756 3.47611 5.09976 3.34499 5.10431C3.09351 5.11304 2.74244 5.13215 2.32787 5.17778C1.97632 5.21648 -0.244053 5.41971 -2.59355 6.7593C-3.89763 7.50284 -6.31416 9.20668 -7.74017 12.4829C-9.32783 16.1306 -8.80455 19.6452 -7.79682 22.0474C-6.28017 25.6627 -3.43018 27.4876 -3.04896 27.7484L10.5023 7.94024ZM2.96942 29.0667C-0.208138 28.8434 -2.25103 27.2326 -3.11766 26.3959C-3.59204 25.9379 -3.93697 25.5047 -4.17912 25.1667C-4.30571 24.99 -4.41932 24.8181 -4.52188 24.6533C-4.57356 24.5702 -4.62348 24.4873 -4.67185 24.4045C-4.69607 24.3631 -4.71999 24.3215 -4.74365 24.2797C-4.75548 24.2589 -4.76726 24.238 -4.77898 24.217C-4.78484 24.2065 -4.79069 24.196 -4.79653 24.1855C-4.79945 24.1802 -4.80237 24.1749 -4.80528 24.1697C-4.80673 24.167 -4.80892 24.1631 -4.80965 24.1618C-4.81183 24.1578 -4.81401 24.1538 5.69695 18.3642C16.2079 12.5746 16.2057 12.5706 16.2035 12.5667C16.2028 12.5653 16.2006 12.5613 16.1991 12.5587C16.1962 12.5533 16.1932 12.548 16.1902 12.5426C16.1842 12.5317 16.1781 12.5208 16.1719 12.5098C16.1596 12.4876 16.1468 12.465 16.1337 12.4419C16.1076 12.3957 16.0798 12.3475 16.0505 12.2974C15.992 12.1972 15.9269 12.0888 15.8551 11.9733C15.7121 11.7436 15.538 11.4787 15.3311 11.1899C14.9284 10.6277 14.3436 9.89388 13.5521 9.12975C12.0513 7.68079 9.06535 5.436 4.65225 5.1258L2.96942 29.0667ZM-4.66814 24.4111C-2.1131 28.7908 2.11849 31.2538 6.56748 31.6513C10.1879 31.9747 13.0156 30.8611 14.1802 30.3398L4.37452 8.43436C4.83696 8.22735 6.4232 7.54279 8.70326 7.7465C9.99579 7.86198 11.5218 8.26978 13.0018 9.19908C14.4902 10.1337 15.4731 11.3079 16.062 12.3173L-4.66814 24.4111ZM21.1634 21.0369C20.9485 22.5852 20.1426 24.8672 17.9518 26.7804L2.16522 8.70323C-0.729303 11.231 -2.173 14.5983 -2.60869 17.7373L21.1634 21.0369ZM11.4162 5.81888C10.7482 5.74281 12.261 5.74345 13.9578 7.17154C14.9187 7.98019 15.6369 8.99531 16.0592 10.0331C16.4508 10.9954 16.4528 11.6397 16.4528 11.6612H-7.54717C-7.54717 16.6474 -5.89285 21.8336 -1.49609 25.5339C2.32041 28.7459 6.636 29.4296 8.70074 29.6648L11.4162 5.81888ZM16.4528 11.6612C16.4528 12.4516 16.3053 13.3498 15.9434 14.2606C15.5849 15.1627 15.0886 15.8958 14.5802 16.4523L-3.13904 0.265077C-5.85161 3.23437 -7.54717 7.18513 -7.54717 11.6612H16.4528ZM16.815 3.78554C17.4531 5.33351 17.8204 7.43139 17.0037 9.50326L-5.32421 0.702003C-7.47699 6.16341 -6.26743 10.764 -5.37382 12.9319L16.815 3.78554ZM5.83977 5.10263C9.49782 16.5315 9.48633 16.5352 9.47484 16.5388C9.47101 16.54 9.45951 16.5437 9.45185 16.5461C9.43653 16.5509 9.4212 16.5557 9.40586 16.5605C9.37519 16.5701 9.3445 16.5795 9.31379 16.5888C9.25237 16.6073 9.19089 16.6254 9.12936 16.6429C9.00627 16.678 8.88307 16.7109 8.75981 16.7417C8.51312 16.8033 8.26705 16.8561 8.02204 16.9004C7.5307 16.9891 7.05128 17.042 6.58788 17.0632C5.65331 17.1061 4.83972 17.0182 4.17689 16.8786C2.87026 16.6034 2.28876 16.1599 2.49652 16.3006L15.9518 -3.57289C13.8084 -5.02413 11.5347 -6.09821 9.12364 -6.60606C7.90861 -6.86199 6.68977 -6.96669 5.488 -6.91156C4.891 -6.88417 4.3125 -6.81795 3.75547 -6.71732C3.47761 -6.66713 3.20705 -6.60872 2.94408 -6.54304C2.81268 -6.51022 2.68339 -6.47564 2.55625 -6.43944C2.49269 -6.42134 2.42969 -6.40284 2.36726 -6.38396C2.33605 -6.37452 2.30498 -6.36499 2.27405 -6.35536C2.25859 -6.35055 2.24317 -6.34572 2.22778 -6.34086C2.22008 -6.33843 2.20856 -6.33478 2.20472 -6.33356C2.19322 -6.32989 2.18172 -6.32622 5.83977 5.10263ZM12.437 17.9258C12.3987 17.9364 12.3709 17.9426 12.3537 17.9461C12.3365 17.9496 12.3269 17.9509 12.3249 17.9512C12.323 17.9514 12.3357 17.9498 12.3569 17.9498L12.2506 -6.05001C10.2236 -6.04103 8.10208 -5.77903 6.0114 -5.19808L12.437 17.9258ZM12.2506 17.9498C12.26 17.9498 12.2687 17.9501 12.2758 17.9506C12.2829 17.9511 12.2861 17.9516 12.2846 17.9514C12.2832 17.9512 12.2746 17.95 12.2584 17.9467C12.2423 17.9435 12.2158 17.9376 12.1791 17.9274L18.593 -5.19971C16.5043 -5.77896 14.3843 -6.04103 12.3569 -6.05001L12.2506 17.9498ZM22.1192 16.2968C22.3258 16.1568 21.7425 16.6018 20.4332 16.878C19.769 17.0181 18.9539 17.1062 18.0176 17.0632C17.5534 17.0419 17.0732 16.9889 16.5812 16.8999C16.3358 16.8555 16.0894 16.8025 15.8424 16.7407C15.719 16.7098 15.5956 16.6768 15.4724 16.6417C15.4108 16.6241 15.3492 16.606 15.2878 16.5874C15.257 16.5781 15.2263 16.5687 15.1956 16.5591C15.1802 16.5543 15.1649 16.5495 15.1495 16.5446C15.1419 16.5422 15.1304 16.5386 15.1265 16.5373C15.115 16.5337 15.1035 16.53 18.7662 5.10263C22.4289 -6.32473 22.4174 -6.32841 22.4059 -6.33208C22.4021 -6.33331 22.3905 -6.33697 22.3828 -6.33941C22.3674 -6.34427 22.352 -6.34912 22.3365 -6.35395C22.3055 -6.36359 22.2744 -6.37315 22.2432 -6.38261C22.1807 -6.40154 22.1176 -6.42008 22.054 -6.43823C21.9267 -6.47452 21.7973 -6.50919 21.6657 -6.54209C21.4025 -6.60794 21.1316 -6.66649 20.8534 -6.71681C20.2958 -6.81769 19.7166 -6.88407 19.119 -6.91152C17.9159 -6.96679 16.6961 -6.86182 15.4804 -6.60542C13.0682 -6.09666 10.7947 -5.02102 8.6529 -3.56917L22.1192 16.2968ZM7.60594 9.51261C6.7856 7.43658 7.15413 5.33405 7.79243 3.78554L29.9813 12.9319C30.8751 10.7635 32.0862 6.15822 29.9265 0.692655L7.60594 9.51261ZM10.0361 16.4621C9.51912 15.8974 9.01906 15.1568 8.65976 14.2501C8.29756 13.336 8.15308 12.4408 8.15308 11.6612H32.1531C32.1531 7.20552 30.4748 3.24507 27.7376 0.255356L10.0361 16.4621ZM8.15308 11.6612C8.15308 11.644 8.15426 10.9973 8.54857 10.0302C8.97434 8.98586 9.69925 7.96443 10.6694 7.15245C12.3782 5.72213 13.8996 5.7287 13.2093 5.80544L15.8608 29.6585C17.9102 29.4307 22.2406 28.7647 26.0736 25.5565C30.4981 21.8533 32.1531 16.6499 32.1531 11.6612H8.15308ZM6.68299 26.8064C3.93955 24.4325 3.36956 21.5454 3.36956 20.0105H27.3696C27.3696 16.1798 26.0131 11.7951 22.3871 8.65756L6.68299 26.8064ZM3.36956 20.0105C3.36956 20.7998 3.36613 21.5161 3.36264 22.0912C3.35944 22.6172 3.35528 23.1361 3.35528 23.387H27.3553C27.3553 23.2325 27.3582 22.8863 27.3622 22.237C27.3658 21.6367 27.3696 20.8673 27.3696 20.0105H3.36956ZM3.35528 23.387C3.35528 25.9679 4.20222 29.7441 7.45263 32.7119C11.0838 36.0274 15.4797 36.3398 18.4823 35.7583L13.9186 12.1962C16.2975 11.7354 20.2708 11.9164 23.6353 14.9884C26.6191 17.7128 27.3553 21.1334 27.3553 23.387H3.35528ZM19.9954 35.3614C29.6367 32.1474 36.6074 23.0542 36.6074 12.3038H12.6074C12.6074 12.3592 12.5996 12.3881 12.5944 12.4038C12.5878 12.4234 12.5762 12.4482 12.5555 12.4765C12.507 12.5427 12.446 12.5796 12.4056 12.5931L19.9954 35.3614ZM36.6074 12.3038C36.6074 -1.11898 25.7261 -12 12.3038 -12V12C12.3678 12 12.3986 12.0106 12.4182 12.0189C12.4459 12.0306 12.4823 12.0528 12.5185 12.089C12.5547 12.1252 12.5768 12.1615 12.5885 12.1892C12.5968 12.2089 12.6074 12.2397 12.6074 12.3038L36.6074 12.3038Z" fill="#E3E3E3" mask="url(#path-1-inside-1_807_20)"/>
<mask id="path-3-inside-2_807_20" fill="white">
<path d="M4.60884 17.527C4.58182 17.5881 4.48551 17.6064 4.39799 17.5645C4.30873 17.5244 4.25856 17.441 4.2875 17.3796C4.31404 17.3167 4.41034 17.2992 4.49941 17.3414C4.58886 17.3815 4.63981 17.4656 4.60884 17.527ZM5.21406 18.067C5.15539 18.1214 5.04066 18.0961 4.96279 18.0102C4.88231 17.9244 4.86725 17.8097 4.92679 17.7544C4.9873 17.7001 5.09856 17.7255 5.17923 17.8114C5.25971 17.8981 5.27534 18.0121 5.21397 18.0671M5.62929 18.7579C5.55383 18.8103 5.4305 18.7612 5.35437 18.6518C5.279 18.5424 5.279 18.4112 5.35601 18.3586C5.43243 18.306 5.55383 18.3533 5.63102 18.4619C5.70629 18.5731 5.70629 18.7044 5.62919 18.758M6.33139 19.5582C6.26394 19.6325 6.12036 19.6126 6.01518 19.5111C5.90768 19.4119 5.87767 19.2711 5.94531 19.1967C6.01353 19.1222 6.15799 19.1431 6.26394 19.2438C6.37076 19.3428 6.40328 19.4846 6.33139 19.5582ZM7.23885 19.8283C7.20922 19.9246 7.07085 19.9685 6.9315 19.9275C6.79236 19.8854 6.70127 19.7725 6.72935 19.6751C6.75829 19.5781 6.89725 19.5325 7.03765 19.5763C7.17661 19.6183 7.2678 19.7303 7.23885 19.8283ZM8.27174 19.9429C8.27522 20.0444 8.15701 20.1285 8.01072 20.1304C7.86356 20.1336 7.74458 20.0514 7.74304 19.9517C7.74304 19.8492 7.85855 19.7658 8.00561 19.7634C8.15189 19.7605 8.27174 19.842 8.27174 19.9429ZM9.28631 19.904C9.30387 20.003 9.20216 20.1047 9.05693 20.1317C8.91412 20.1578 8.78192 20.0967 8.76368 19.9986C8.74593 19.897 8.84956 19.7954 8.99209 19.7691C9.13761 19.7438 9.26778 19.8033 9.28631 19.904Z"/>
</mask>
<path d="M4.60884 17.527L3.26973 16.8511L3.25251 16.8853L3.23705 16.9202L4.60884 17.527ZM4.39799 17.5645L5.04544 16.2115L5.02942 16.2038L5.01323 16.1965L4.39799 17.5645ZM4.2875 17.3796L5.64415 18.0196L5.65747 17.9913L5.6696 17.9626L4.2875 17.3796ZM4.49941 17.3414L3.85633 18.6966L3.87134 18.7037L3.8865 18.7105L4.49941 17.3414ZM4.96279 18.0102L6.07456 17.0032L6.06574 16.9935L6.05675 16.9839L4.96279 18.0102ZM4.92679 17.7544L3.92462 16.6383L3.91527 16.6468L3.90605 16.6553L4.92679 17.7544ZM5.17923 17.8114L6.27892 16.7912L6.27254 16.7844L5.17923 17.8114ZM5.35437 18.6518L4.11934 19.5031L4.12308 19.5085L5.35437 18.6518ZM5.35601 18.3586L6.20198 19.5973L6.20633 19.5943L5.35601 18.3586ZM5.63102 18.4619L6.87343 17.6214L6.86361 17.6069L6.85346 17.5926L5.63102 18.4619ZM6.33139 19.5582L5.25884 18.5095L5.23943 18.5294L5.22077 18.5499L6.33139 19.5582ZM6.01518 19.5111L7.05685 18.4318L7.04477 18.4201L7.03243 18.4087L6.01518 19.5111ZM5.94531 19.1967L4.8391 18.1836L4.83547 18.1876L5.94531 19.1967ZM6.26394 19.2438L5.23087 20.3313L5.23754 20.3377L5.2443 20.3439L6.26394 19.2438ZM7.23885 19.8283L8.67255 20.2694L8.67504 20.2613L8.67744 20.2531L7.23885 19.8283ZM6.9315 19.9275L6.49645 21.3631L6.5089 21.3668L6.9315 19.9275ZM6.72935 19.6751L5.29195 19.246L5.28809 19.2594L6.72935 19.6751ZM7.03765 19.5763L6.59084 21.0083L6.60389 21.0122L7.03765 19.5763ZM8.27174 19.9429H6.77174V19.9685L6.77262 19.9942L8.27174 19.9429ZM8.01072 20.1304L7.99192 18.6304L7.97827 18.6307L8.01072 20.1304ZM7.74304 19.9517H6.24304V19.9633L6.24322 19.9749L7.74304 19.9517ZM8.00561 19.7634L8.03021 21.2632L8.03528 21.2631L8.00561 19.7634ZM9.28631 19.904L10.7633 19.642L10.7615 19.6324L9.28631 19.904ZM9.05693 20.1317L9.32614 21.6074L9.3313 21.6064L9.05693 20.1317ZM8.76368 19.9986L7.28611 20.257L7.28748 20.2648L7.28893 20.2726L8.76368 19.9986ZM8.99209 19.7691L8.73533 18.2912L8.72738 18.2926L8.71946 18.2941L8.99209 19.7691ZM3.23705 16.9202C3.48435 16.3611 3.9728 16.1604 4.25766 16.1086C4.55733 16.0541 4.83068 16.1087 5.04544 16.2115L3.75055 18.9176C4.05283 19.0623 4.41809 19.1286 4.79455 19.0602C5.15619 18.9944 5.70631 18.7539 5.98062 18.1338L3.23705 16.9202ZM5.01323 16.1965C5.21348 16.2866 5.42927 16.4489 5.58527 16.7093C5.73701 16.9627 5.90527 17.466 5.64415 18.0196L2.93086 16.7397C2.64078 17.3547 2.81967 17.9304 3.01157 18.2508C3.20773 18.5783 3.49325 18.8024 3.78275 18.9326L5.01323 16.1965ZM5.6696 17.9626C5.42958 18.5316 4.93545 18.7431 4.63711 18.7971C4.33148 18.8524 4.06057 18.7935 3.85633 18.6966L5.14249 15.9863C4.84918 15.8471 4.48559 15.7758 4.1029 15.8451C3.72752 15.913 3.17196 16.1647 2.90541 16.7967L5.6696 17.9626ZM3.8865 18.7105C3.68535 18.6204 3.46711 18.4571 3.31 18.1929C3.15624 17.9343 2.98586 17.4136 3.26973 16.8511L5.94794 18.2029C6.26279 17.579 6.08242 16.9856 5.88857 16.6596C5.69136 16.3279 5.40293 16.1025 5.11232 15.9724L3.8865 18.7105ZM4.19394 16.9673C4.63662 16.5566 5.15519 16.5673 5.42399 16.6276C5.70793 16.6913 5.92562 16.8388 6.07456 17.0032L3.85101 19.0171C4.07782 19.2675 4.39182 19.4706 4.76726 19.5548C5.12757 19.6357 5.73284 19.6318 6.23418 19.1667L4.19394 16.9673ZM6.05675 16.9839C6.2039 17.1407 6.33742 17.3699 6.37823 17.6661C6.41806 17.955 6.37393 18.4576 5.94754 18.8536L3.90605 16.6553C3.42011 17.1066 3.35375 17.6942 3.40633 18.0757C3.45991 18.4644 3.6412 18.7938 3.86883 19.0364L6.05675 16.9839ZM5.92896 18.8705C5.49838 19.2572 4.99676 19.2572 4.71434 19.1933C4.42847 19.1286 4.2209 18.982 4.08592 18.8383L6.27254 16.7844C6.05688 16.5548 5.75334 16.3526 5.37655 16.2673C5.00321 16.1828 4.41571 16.1974 3.92462 16.6383L5.92896 18.8705ZM4.07956 18.8315C3.93988 18.681 3.80448 18.4543 3.76352 18.1536C3.72269 17.8539 3.77455 17.3429 4.21285 16.9501L6.21508 19.1841C6.71476 18.7363 6.78949 18.1408 6.73606 17.7486C6.6825 17.3556 6.49905 17.0285 6.2789 16.7912L4.07956 18.8315ZM4.77375 17.5258C5.27185 17.1799 5.78487 17.2697 6.03695 17.368C6.29887 17.4701 6.47598 17.6374 6.58566 17.7951L4.12308 19.5085C4.30889 19.7755 4.58573 20.0221 4.94722 20.1631C5.29885 20.3002 5.91126 20.3883 6.48482 19.99L4.77375 17.5258ZM6.58938 17.8004C6.70261 17.9647 6.79916 18.1989 6.79804 18.4897C6.79693 18.7764 6.68338 19.2685 6.20198 19.5973L4.51004 17.1199C3.95163 17.5013 3.79958 18.0853 3.79806 18.4781C3.79653 18.875 3.93076 19.2295 4.11936 19.5031L6.58938 17.8004ZM6.20633 19.5943C5.72446 19.9259 5.22429 19.8522 4.96071 19.7521C4.69407 19.6508 4.51659 19.483 4.40859 19.3311L6.85346 17.5926C6.66826 17.3321 6.39148 17.0864 6.02575 16.9475C5.66306 16.8098 5.06399 16.7387 4.50569 17.1229L6.20633 19.5943ZM4.38861 19.3023C4.28103 19.1433 4.18602 18.9135 4.18726 18.6251C4.18848 18.3392 4.30116 17.8547 4.77241 17.5268L6.48597 19.9892C7.03432 19.6077 7.18555 19.0307 7.18723 18.638C7.18893 18.2428 7.05628 17.8917 6.87343 17.6214L4.38861 19.3023ZM5.22077 18.5499C5.6184 18.1119 6.1273 18.076 6.40361 18.1162C6.69002 18.1579 6.90878 18.2888 7.05685 18.4318L4.9735 20.5904C5.22675 20.8348 5.5699 21.0264 5.97125 21.0849C6.36252 21.1419 6.97694 21.0787 7.44202 20.5664L5.22077 18.5499ZM7.03243 18.4087C7.17798 18.543 7.31906 18.7467 7.37971 19.0231C7.43843 19.2907 7.43982 19.7827 7.05516 20.2058L4.83547 18.1876C4.38316 18.6851 4.36573 19.2846 4.44942 19.666C4.53504 20.0563 4.74487 20.3799 4.99792 20.6134L7.03243 18.4087ZM7.05152 20.2097C6.65138 20.6467 6.14286 20.6783 5.87246 20.6386C5.59146 20.5973 5.37688 20.47 5.23087 20.3313L7.29701 18.1562C7.04505 17.9169 6.70527 17.7288 6.3085 17.6705C5.92232 17.6137 5.30747 17.6722 4.83911 18.1836L7.05152 20.2097ZM5.2443 20.3439C5.10315 20.2131 4.96073 20.0112 4.89945 19.7316C4.8391 19.4562 4.83998 18.9379 5.25884 18.5095L7.40395 20.6068C7.8947 20.1048 7.91526 19.4789 7.82992 19.0894C7.74365 18.6957 7.53156 18.3734 7.28359 18.1436L5.2443 20.3439ZM5.80515 19.3873C5.97747 18.8271 6.41565 18.5821 6.66806 18.5011C6.93066 18.4169 7.17017 18.4343 7.35411 18.4883L6.5089 21.3668C6.83218 21.4617 7.21055 21.4777 7.58458 21.3577C7.94842 21.2409 8.4706 20.9259 8.67255 20.2694L5.80515 19.3873ZM7.36654 18.492C7.55204 18.5482 7.76362 18.6665 7.93748 18.8831C8.10551 19.0924 8.33095 19.5348 8.1706 20.0908L5.28809 19.2594C5.09966 19.9128 5.3566 20.4603 5.59795 20.761C5.84512 21.0689 6.17182 21.2647 6.49647 21.3631L7.36654 18.492ZM8.16667 20.1042C7.9991 20.6655 7.56243 20.9164 7.30272 21.0003C7.03261 21.0875 6.7836 21.0683 6.59086 21.0082L7.48445 18.1444C7.1513 18.0404 6.76261 18.0222 6.38069 18.1455C6.00916 18.2655 5.48854 18.5877 5.29202 19.2461L8.16667 20.1042ZM6.60389 21.0122C6.42088 20.9569 6.20765 20.8397 6.03167 20.6205C5.85919 20.4058 5.63621 19.9591 5.80025 19.4036L8.67744 20.2531C8.87043 19.5995 8.61633 19.0478 8.37076 18.7421C8.12168 18.4319 7.79337 18.2376 7.47142 18.1404L6.60389 21.0122ZM6.77262 19.9942C6.75223 19.3984 7.09729 19.0169 7.32392 18.8546C7.55625 18.6881 7.79761 18.6329 7.99192 18.6305L8.02952 21.6303C8.37012 21.626 8.74373 21.5278 9.07087 21.2935C9.39231 21.0632 9.79473 20.5888 9.77087 19.8916L6.77262 19.9942ZM7.97827 18.6307C8.17969 18.6264 8.42495 18.6768 8.66112 18.8361C8.88781 18.989 9.23388 19.3483 9.24286 19.9285L6.24322 19.9749C6.25374 20.6548 6.66007 21.105 6.98343 21.3231C7.31627 21.5477 7.6946 21.6376 8.04317 21.63L7.97827 18.6307ZM9.24304 19.9517C9.24304 20.5079 8.92592 20.8719 8.69441 21.0382C8.46141 21.2056 8.22032 21.2601 8.03021 21.2632L7.981 18.2636C7.64383 18.2691 7.27146 18.3665 6.94394 18.6018C6.61792 18.8361 6.24304 19.2929 6.24304 19.9517H9.24304ZM8.03528 21.2631C7.83574 21.2671 7.59046 21.2172 7.35326 21.0568C7.12354 20.9014 6.77174 20.5335 6.77174 19.9429H9.77174C9.77174 19.2514 9.36003 18.7923 9.03381 18.5717C8.70011 18.346 8.32176 18.2568 7.97593 18.2637L8.03528 21.2631ZM7.80936 20.166C7.70782 19.5936 7.98082 19.1744 8.17464 18.9816C8.37406 18.7831 8.59819 18.6913 8.78257 18.657L9.3313 21.6064C9.66091 21.5451 10.0085 21.3889 10.2907 21.1081C10.5673 20.8329 10.8824 20.3134 10.7632 19.642L7.80936 20.166ZM8.78773 18.6561C8.98727 18.6197 9.23353 18.6317 9.48658 18.7472C9.72686 18.8569 10.1317 19.15 10.2384 19.7245L7.28893 20.2726C7.41393 20.9452 7.89396 21.318 8.2406 21.4762C8.60002 21.6403 8.98378 21.6698 9.32614 21.6074L8.78773 18.6561ZM10.2413 19.7401C10.3404 20.307 10.0716 20.7237 9.87689 20.9178C9.67851 21.1157 9.45392 21.2091 9.26472 21.2441L8.71946 18.2941C8.38774 18.3554 8.04007 18.5129 7.75867 18.7934C7.48097 19.0703 7.16921 19.5886 7.28611 20.257L10.2413 19.7401ZM9.24885 21.247C9.06562 21.2788 8.82144 21.2719 8.56203 21.153C8.30486 21.0352 7.9141 20.7351 7.81109 20.1756L10.7615 19.6324C10.64 18.9722 10.1749 18.5921 9.81161 18.4256C9.4461 18.2582 9.06407 18.2341 8.73533 18.2912L9.24885 21.247Z" fill="#E3E3E3" mask="url(#path-3-inside-2_807_20)"/>
</svg>
