<svg width="129" height="48" viewBox="0 0 129 48" fill="none" xmlns="http://www.w3.org/2000/svg">
<g id="HTML" opacity="0.6">
<path id="HTML_2" d="M69.596 19.2H73.484V36H69.596V19.2ZM61.964 36H58.076V19.2H61.964V36ZM69.884 29.112H61.676V25.824H69.884V29.112ZM80.9388 36V22.368H75.5628V19.2H90.2028V22.368H84.8268V36H80.9388ZM92.2947 36V19.2H95.5107L102.663 31.056H100.959L107.991 19.2H111.183L111.231 36H107.583L107.559 24.792H108.231L102.615 34.224H100.863L95.1267 24.792H95.9427V36H92.2947ZM115.217 36V19.2H119.105V32.832H127.529V36H115.217Z" fill="#E3E3E3"/>
<g id="Group 34">
<path id="Vector" d="M3.35631 41.0185L0 0L40.083 0.0824288L36.5341 41.0185L20.1928 45.7503L3.35631 41.0185Z" fill="#4E4E4E"/>
<path id="Vector_2" d="M20.1914 41.7891V3.90674L36.6979 3.96169L33.7543 37.8548L20.1914 41.7891Z" fill="#7F7F7F"/>
<path id="Vector_3" d="M32.1612 13.3699L32.6286 8.36279H7.23633L8.63923 23.7139H26.1636L25.4764 30.2614L19.8641 31.7742L14.1694 30.1237L13.8668 26.2172H8.83189L9.51977 34.1953L19.8638 37.0839L30.2902 34.1953L31.6931 18.6244H13.2889L12.7662 13.3699H32.1612Z" fill="white"/>
</g>
</g>
</svg>
