<svg width="185" height="46" viewBox="0 0 185 46" fill="none" xmlns="http://www.w3.org/2000/svg">
<g id="javascript">
<path id="Vector" d="M3.35631 41.0185L0 0L40.083 0.0824288L36.5341 41.0185L20.1928 45.7503L3.35631 41.0185Z" fill="#443F3C"/>
<path id="Javascript" opacity="0.6" d="M61.172 32.288C60.036 32.288 58.988 32.08 58.028 31.664C57.084 31.232 56.308 30.624 55.7 29.84L57.86 27.248C58.324 27.856 58.812 28.32 59.324 28.64C59.836 28.944 60.388 29.096 60.98 29.096C62.564 29.096 63.356 28.168 63.356 26.312V18.32H57.452V15.2H67.22V26.096C67.22 28.176 66.708 29.728 65.684 30.752C64.66 31.776 63.156 32.288 61.172 32.288ZM78.7164 32V29.48L78.4764 28.928V24.416C78.4764 23.616 78.2284 22.992 77.7324 22.544C77.2524 22.096 76.5084 21.872 75.5004 21.872C74.8124 21.872 74.1324 21.984 73.4604 22.208C72.8044 22.416 72.2444 22.704 71.7804 23.072L70.4364 20.456C71.1404 19.96 71.9884 19.576 72.9804 19.304C73.9724 19.032 74.9804 18.896 76.0044 18.896C77.9724 18.896 79.5004 19.36 80.5884 20.288C81.6764 21.216 82.2204 22.664 82.2204 24.632V32H78.7164ZM74.7804 32.192C73.7724 32.192 72.9084 32.024 72.1884 31.688C71.4684 31.336 70.9164 30.864 70.5324 30.272C70.1484 29.68 69.9564 29.016 69.9564 28.28C69.9564 27.512 70.1404 26.84 70.5084 26.264C70.8924 25.688 71.4924 25.24 72.3084 24.92C73.1244 24.584 74.1884 24.416 75.5004 24.416H78.9324V26.6H75.9084C75.0284 26.6 74.4204 26.744 74.0844 27.032C73.7644 27.32 73.6044 27.68 73.6044 28.112C73.6044 28.592 73.7884 28.976 74.1564 29.264C74.5404 29.536 75.0604 29.672 75.7164 29.672C76.3404 29.672 76.9004 29.528 77.3964 29.24C77.8924 28.936 78.2524 28.496 78.4764 27.92L79.0524 29.648C78.7804 30.48 78.2844 31.112 77.5644 31.544C76.8444 31.976 75.9164 32.192 74.7804 32.192ZM88.8785 32L83.4545 19.088H87.3185L91.8305 30.2H89.9105L94.5905 19.088H98.1905L92.7425 32H88.8785ZM107.216 32V29.48L106.976 28.928V24.416C106.976 23.616 106.728 22.992 106.232 22.544C105.752 22.096 105.008 21.872 104 21.872C103.312 21.872 102.632 21.984 101.96 22.208C101.304 22.416 100.744 22.704 100.28 23.072L98.9364 20.456C99.6404 19.96 100.488 19.576 101.48 19.304C102.472 19.032 103.48 18.896 104.504 18.896C106.472 18.896 108 19.36 109.088 20.288C110.176 21.216 110.72 22.664 110.72 24.632V32H107.216ZM103.28 32.192C102.272 32.192 101.408 32.024 100.688 31.688C99.9684 31.336 99.4164 30.864 99.0324 30.272C98.6484 29.68 98.4564 29.016 98.4564 28.28C98.4564 27.512 98.6404 26.84 99.0084 26.264C99.3924 25.688 99.9924 25.24 100.808 24.92C101.624 24.584 102.688 24.416 104 24.416H107.432V26.6H104.408C103.528 26.6 102.92 26.744 102.584 27.032C102.264 27.32 102.104 27.68 102.104 28.112C102.104 28.592 102.288 28.976 102.656 29.264C103.04 29.536 103.56 29.672 104.216 29.672C104.84 29.672 105.4 29.528 105.896 29.24C106.392 28.936 106.752 28.496 106.976 27.92L107.552 29.648C107.28 30.48 106.784 31.112 106.064 31.544C105.344 31.976 104.416 32.192 103.28 32.192ZM118.453 32.192C117.349 32.192 116.285 32.064 115.261 31.808C114.253 31.536 113.453 31.2 112.861 30.8L114.109 28.112C114.701 28.48 115.397 28.784 116.197 29.024C117.013 29.248 117.813 29.36 118.597 29.36C119.461 29.36 120.069 29.256 120.421 29.048C120.789 28.84 120.973 28.552 120.973 28.184C120.973 27.88 120.829 27.656 120.541 27.512C120.269 27.352 119.901 27.232 119.437 27.152C118.973 27.072 118.461 26.992 117.901 26.912C117.357 26.832 116.805 26.728 116.245 26.6C115.685 26.456 115.173 26.248 114.709 25.976C114.245 25.704 113.869 25.336 113.581 24.872C113.309 24.408 113.173 23.808 113.173 23.072C113.173 22.256 113.405 21.536 113.869 20.912C114.349 20.288 115.037 19.8 115.933 19.448C116.829 19.08 117.901 18.896 119.149 18.896C120.029 18.896 120.925 18.992 121.837 19.184C122.749 19.376 123.509 19.656 124.117 20.024L122.869 22.688C122.245 22.32 121.613 22.072 120.973 21.944C120.349 21.8 119.741 21.728 119.149 21.728C118.317 21.728 117.709 21.84 117.325 22.064C116.941 22.288 116.749 22.576 116.749 22.928C116.749 23.248 116.885 23.488 117.157 23.648C117.445 23.808 117.821 23.936 118.285 24.032C118.749 24.128 119.253 24.216 119.797 24.296C120.357 24.36 120.917 24.464 121.477 24.608C122.037 24.752 122.541 24.96 122.989 25.232C123.453 25.488 123.829 25.848 124.117 26.312C124.405 26.76 124.549 27.352 124.549 28.088C124.549 28.888 124.309 29.6 123.829 30.224C123.349 30.832 122.653 31.312 121.741 31.664C120.845 32.016 119.749 32.192 118.453 32.192ZM133.099 32.192C131.707 32.192 130.467 31.912 129.379 31.352C128.291 30.776 127.435 29.984 126.811 28.976C126.203 27.968 125.899 26.824 125.899 25.544C125.899 24.248 126.203 23.104 126.811 22.112C127.435 21.104 128.291 20.32 129.379 19.76C130.467 19.184 131.707 18.896 133.099 18.896C134.459 18.896 135.643 19.184 136.651 19.76C137.659 20.32 138.403 21.128 138.883 22.184L135.979 23.744C135.643 23.136 135.219 22.688 134.707 22.4C134.211 22.112 133.667 21.968 133.075 21.968C132.435 21.968 131.859 22.112 131.347 22.4C130.835 22.688 130.427 23.096 130.123 23.624C129.835 24.152 129.691 24.792 129.691 25.544C129.691 26.296 129.835 26.936 130.123 27.464C130.427 27.992 130.835 28.4 131.347 28.688C131.859 28.976 132.435 29.12 133.075 29.12C133.667 29.12 134.211 28.984 134.707 28.712C135.219 28.424 135.643 27.968 135.979 27.344L138.883 28.928C138.403 29.968 137.659 30.776 136.651 31.352C135.643 31.912 134.459 32.192 133.099 32.192ZM141.039 32V19.088H144.615V22.736L144.111 21.68C144.495 20.768 145.111 20.08 145.959 19.616C146.807 19.136 147.839 18.896 149.055 18.896V22.352C148.895 22.336 148.751 22.328 148.623 22.328C148.495 22.312 148.359 22.304 148.215 22.304C147.191 22.304 146.359 22.6 145.719 23.192C145.095 23.768 144.783 24.672 144.783 25.904V32H141.039ZM151.304 32V19.088H155.048V32H151.304ZM153.176 17.288C152.488 17.288 151.928 17.088 151.496 16.688C151.064 16.288 150.848 15.792 150.848 15.2C150.848 14.608 151.064 14.112 151.496 13.712C151.928 13.312 152.488 13.112 153.176 13.112C153.864 13.112 154.424 13.304 154.856 13.688C155.288 14.056 155.504 14.536 155.504 15.128C155.504 15.752 155.288 16.272 154.856 16.688C154.44 17.088 153.88 17.288 153.176 17.288ZM166.155 32.192C165.067 32.192 164.115 31.952 163.299 31.472C162.483 30.992 161.843 30.264 161.379 29.288C160.931 28.296 160.707 27.048 160.707 25.544C160.707 24.024 160.923 22.776 161.355 21.8C161.787 20.824 162.411 20.096 163.227 19.616C164.043 19.136 165.019 18.896 166.155 18.896C167.371 18.896 168.459 19.176 169.419 19.736C170.395 20.28 171.163 21.048 171.723 22.04C172.299 23.032 172.587 24.2 172.587 25.544C172.587 26.904 172.299 28.08 171.723 29.072C171.163 30.064 170.395 30.832 169.419 31.376C168.459 31.92 167.371 32.192 166.155 32.192ZM158.523 36.656V19.088H162.099V21.728L162.027 25.568L162.267 29.384V36.656H158.523ZM165.507 29.12C166.131 29.12 166.683 28.976 167.163 28.688C167.659 28.4 168.051 27.992 168.339 27.464C168.643 26.92 168.795 26.28 168.795 25.544C168.795 24.792 168.643 24.152 168.339 23.624C168.051 23.096 167.659 22.688 167.163 22.4C166.683 22.112 166.131 21.968 165.507 21.968C164.883 21.968 164.323 22.112 163.827 22.4C163.331 22.688 162.939 23.096 162.651 23.624C162.363 24.152 162.219 24.792 162.219 25.544C162.219 26.28 162.363 26.92 162.651 27.464C162.939 27.992 163.331 28.4 163.827 28.688C164.323 28.976 164.883 29.12 165.507 29.12ZM180.373 32.192C178.853 32.192 177.669 31.808 176.821 31.04C175.973 30.256 175.549 29.096 175.549 27.56V16.232H179.293V27.512C179.293 28.056 179.437 28.48 179.725 28.784C180.013 29.072 180.405 29.216 180.901 29.216C181.493 29.216 181.997 29.056 182.413 28.736L183.421 31.376C183.037 31.648 182.573 31.856 182.029 32C181.501 32.128 180.949 32.192 180.373 32.192ZM173.557 22.256V19.376H182.509V22.256H173.557Z" fill="#E3E3E3"/>
<path id="Vector_2" d="M20.1914 41.7891V3.90674L36.6979 3.96169L33.7543 37.8548L20.1914 41.7891Z" fill="#615D59"/>
<path id="Vector_3" opacity="0.6" d="M18.4236 8.40479H14.0598V33.6183L10.6656 32.9718V29.5777L6.625 28.9312V36.5276L18.4236 39.5984V8.40479ZM21.6972 8.40479H33.778L32.9699 13.2374H26.309V21.1677H32.9699L32.1618 37.1741L21.6972 39.5984V34.5881L28.7676 32.1637L29.1759 25.537L21.6972 26.6199V8.40479Z" fill="white"/>
</g>
</svg>
