<svg width="33" height="23" viewBox="0 0 33 23" fill="none" xmlns="http://www.w3.org/2000/svg">
<path d="M25.0509 13.0699C23.5605 13.0699 22.1655 12.4383 20.8962 11.4099L21.2052 9.95884L21.2188 9.90583C21.4945 8.36088 22.3669 5.76628 25.0509 5.76628C27.0639 5.76628 28.7012 7.40665 28.7012 9.42114C28.6951 11.4296 27.0578 13.0699 25.0509 13.0699V13.0699ZM25.0509 2.06296C21.6217 2.06296 18.9635 4.29404 17.8835 7.96253C16.2326 5.48304 14.9845 2.50675 14.2529 0H10.5632V9.61501C10.5632 11.5098 9.0198 13.0548 7.12648 13.0548C5.23317 13.0548 3.69125 11.5098 3.69125 9.61501V0H4.33657e-05V9.61501C-0.0135885 13.5531 3.18839 16.7854 7.12043 16.7854C11.0525 16.7854 14.2544 13.5531 14.2544 9.61501V8.00191C14.9724 9.4999 15.8509 11.0115 16.9187 12.3565L14.6573 23H18.4364L20.0737 15.2798C21.5096 16.2007 23.1606 16.7778 25.0539 16.7778C29.1011 16.7778 32.3954 13.4577 32.3954 9.40599C32.3924 5.36187 29.098 2.06296 25.0509 2.06296V2.06296Z" fill="#E3E3E3"/>
</svg>
