<svg width="30" height="21" viewBox="0 0 30 21" fill="none" xmlns="http://www.w3.org/2000/svg">
<path d="M22.8725 11.9334C21.5117 11.9334 20.238 11.3567 19.0791 10.4177L19.3612 9.09286L19.3737 9.04445C19.6254 7.63385 20.422 5.26487 22.8725 5.26487C24.7105 5.26487 26.2054 6.7626 26.2054 8.60191C26.1999 10.4357 24.7049 11.9334 22.8725 11.9334V11.9334ZM22.8725 1.88357C19.7416 1.88357 17.3145 3.92065 16.3285 7.27014C14.821 5.00626 13.6815 2.28877 13.0135 0H9.64469V8.77893C9.64469 10.509 8.23547 11.9196 6.50679 11.9196C4.77811 11.9196 3.37027 10.509 3.37027 8.77893V0H3.95948e-05V8.77893C-0.0124069 12.3746 2.91114 15.3258 6.50126 15.3258C10.0914 15.3258 13.0149 12.3746 13.0149 8.77893V7.30609C13.6704 8.67382 14.4725 10.054 15.4475 11.2821L13.3828 21H16.8332L18.3282 13.9511C19.6392 14.792 21.1466 15.3189 22.8753 15.3189C26.5705 15.3189 29.5784 12.2875 29.5784 8.58808C29.5757 4.89562 26.5678 1.88357 22.8725 1.88357V1.88357Z" fill="#E3E3E3"/>
</svg>
